<svg width="208" height="208" viewBox="0 0 208 208" fill="none" xmlns="http://www.w3.org/2000/svg">
<path d="M86.9329 180.875L88.5289 181.054L90.0692 185.278L100.017 186.395L102.434 182.615L103.986 182.789L94.6449 197.37L92.9834 197.184L86.9329 180.875ZM90.544 186.571L93.9687 195.899L99.289 187.553L90.544 186.571Z" fill="#FFD953"/>
<path d="M76.3076 182.463L67.4222 190.543L65.8855 190.005L75.4456 181.462C76.442 180.568 77.1887 179.943 77.6856 179.589C78.1687 179.23 78.6479 178.97 79.1234 178.81C79.9297 178.548 80.9143 178.62 82.0772 179.027C82.548 179.192 83.0962 179.446 83.722 179.789L83.2863 181.035C82.6605 180.692 82.1261 180.443 81.683 180.288C81.2123 180.123 80.787 180.029 80.407 180.005C80.0221 179.994 79.6522 180.075 79.2971 180.246C78.9373 180.431 78.666 180.584 78.4833 180.707C78.2957 180.843 78.0072 181.069 77.6175 181.383L80.7545 195.205L79.0101 194.595L76.3076 182.463Z" fill="#FFD953"/>
<path d="M49.6061 178.955L55.2822 182.451L62.7345 170.349L64.0083 171.134L56.556 183.235L62.4756 186.88L61.7834 188.004L48.914 180.079L49.6061 178.955Z" fill="#FFD953"/>
<path d="M35.5979 162.666L37.0492 163.071C36.8597 163.768 36.7738 164.453 36.7916 165.127C36.799 165.811 36.8832 166.397 37.044 166.882C37.1944 167.358 37.407 167.832 37.6819 168.307C37.9462 168.77 38.1834 169.126 38.3936 169.372C38.6037 169.619 38.824 169.855 39.0547 170.081C40.5957 171.588 42.3409 172.321 44.2903 172.279C46.0738 172.239 47.6425 171.527 48.9965 170.143C50.3196 168.791 50.9662 167.208 50.936 165.393C50.9154 163.505 50.1346 161.808 48.5936 160.3C46.4864 158.238 43.9955 157.597 41.1207 158.375L40.6076 156.98C41.8897 156.613 43.128 156.512 44.3225 156.675C46.2858 156.954 48.0484 157.858 49.6104 159.387C51.1619 160.905 52.0874 162.549 52.3867 164.319C52.5979 165.613 52.5027 166.874 52.1012 168.103C51.6998 169.331 51.0323 170.422 50.0989 171.376C48.7347 172.77 47.1202 173.561 45.2553 173.747C44.3954 173.829 43.5601 173.791 42.7494 173.634C41.9282 173.467 41.215 173.21 40.6096 172.864C39.9836 172.518 39.4928 172.212 39.1372 171.947C38.761 171.681 38.4208 171.4 38.1168 171.102C36.3871 169.41 35.4584 167.465 35.3307 165.267C35.2818 164.583 35.3708 163.716 35.5979 162.666Z" fill="#FFD953"/>
<path d="M35.3997 156.239C34.2807 156.911 33.1302 157.303 31.948 157.414C30.7659 157.525 29.6692 157.38 28.6578 156.978C27.6263 156.571 26.684 156 25.8309 155.263C24.9703 154.514 24.2379 153.636 23.6337 152.631C23.4373 152.304 23.2573 151.976 23.0936 151.646C22.93 151.317 22.7411 150.831 22.5269 150.19C22.3052 149.536 22.164 148.902 22.1034 148.289C22.0225 147.67 22.0398 146.958 22.1551 146.153C22.2628 145.336 22.5051 144.557 22.882 143.817C23.5956 142.413 24.6125 141.315 25.9326 140.522C27.5796 139.533 29.3251 139.177 31.169 139.455C32.0745 139.596 32.9249 139.872 33.7199 140.284C34.5074 140.683 35.1755 141.155 35.7241 141.698C36.2601 142.248 36.6742 142.71 36.9661 143.082C37.2581 143.454 37.5174 143.829 37.744 144.206C37.9328 144.52 38.1128 144.848 38.284 145.19C38.4552 145.532 38.6529 146.046 38.8772 146.733C39.0938 147.407 39.2338 148.067 39.297 148.714C39.3602 149.36 39.3191 150.103 39.1737 150.944C39.0207 151.771 38.7331 152.56 38.3109 153.31C37.6274 154.507 36.657 155.484 35.3997 156.239ZM26.5409 142.133C24.9693 143.077 23.9903 144.452 23.6039 146.258C23.205 148.072 23.6021 149.972 24.7954 151.958C25.7848 153.605 27.0204 154.737 28.5022 155.352C29.257 155.669 30.1777 155.834 31.2643 155.849C32.3308 155.858 33.4487 155.512 34.6179 154.809C35.4226 154.326 36.0964 153.725 36.6393 153.005C37.1295 152.368 37.4775 151.68 37.6833 150.941C37.8691 150.196 37.9492 149.532 37.9238 148.948C37.8782 148.36 37.7622 147.754 37.5757 147.13C37.3892 146.506 37.218 146.036 37.0618 145.719C36.8982 145.39 36.7333 145.087 36.5671 144.81C35.8949 143.691 35.1298 142.816 34.2718 142.185C33.3936 141.549 32.5155 141.17 31.6376 141.047C30.7396 140.919 29.8668 140.947 29.0192 141.132C28.1591 141.323 27.333 141.657 26.5409 142.133Z" fill="#FFD953"/>
<path d="M31.5737 133.397L16.6954 137.855L13.7336 127.972C13.4346 126.974 13.2811 126.079 13.2729 125.285C13.2507 124.495 13.5045 123.784 14.0343 123.15C14.595 122.416 15.339 121.91 16.2663 121.632C17.615 121.228 18.8273 121.416 19.9032 122.196C20.7978 122.831 21.5146 124.048 22.0535 125.846L24.4849 133.959L31.1443 131.964L31.5737 133.397ZM23.2204 134.338L20.9091 126.625C20.3996 124.925 19.753 123.841 18.9693 123.371C18.3035 122.989 17.5562 122.922 16.7273 123.17C15.7298 123.469 15.0855 124.053 14.7944 124.921C14.5849 125.55 14.638 126.392 14.9538 127.445L17.5304 136.043L23.2204 134.338Z" fill="#FFD953"/>
<path d="M14.2462 100.767L15.0424 102.045C14.4317 102.431 13.905 102.878 13.4625 103.387C13.0054 103.896 12.6719 104.384 12.4621 104.851C12.2516 105.303 12.0873 105.797 11.9694 106.332C11.8506 106.852 11.7853 107.274 11.7735 107.598C11.7616 107.922 11.7644 108.245 11.7818 108.567C11.8982 110.72 12.6889 112.44 14.1538 113.727C15.4953 114.902 17.1326 115.438 19.0658 115.334C20.955 115.231 22.5019 114.502 23.7063 113.144C24.967 111.739 25.5391 109.96 25.4227 107.807C25.2635 104.864 23.8617 102.707 21.2172 101.337L21.7818 99.9626C22.9744 100.559 23.9556 101.321 24.7255 102.249C25.9835 103.782 26.6714 105.639 26.7894 107.822C26.9066 109.989 26.4772 111.826 25.5012 113.333C24.782 114.43 23.8593 115.295 22.7332 115.928C21.6071 116.562 20.3777 116.915 19.045 116.987C17.0972 117.092 15.3732 116.583 13.873 115.46C13.1839 114.939 12.5937 114.347 12.1025 113.683C11.6105 113.005 11.2584 112.333 11.0462 111.669C10.8186 110.991 10.6636 110.434 10.5813 109.998C10.4835 109.548 10.4232 109.111 10.4002 108.686C10.2695 106.269 10.8998 104.208 12.2911 102.503C12.7174 101.966 13.3691 101.387 14.2462 100.767Z" fill="#FFD953"/>
<path d="M26.2912 96.6075L11.0686 93.5228L11.3657 92.0566L23.3325 94.4815L15.3801 79.4466L13.9785 79.1626L14.2757 77.6964L29.4983 80.7812L29.2011 82.2474L17.0188 79.7787L24.9712 94.8136L26.5883 95.1413L26.2912 96.6075Z" fill="#FFD953"/>
<path d="M37.8763 62.6694L37.2273 63.9928L30.4128 60.6506L24.668 72.3637L31.4825 75.7059L30.8141 77.0688L16.869 70.2294L17.5375 68.8665L23.5026 71.7921L29.2474 60.079L23.2822 57.1534L23.9313 55.83L37.8763 62.6694Z" fill="#FFD953"/>
<path d="M36.3002 39.737L37.3266 40.567L30.189 49.3943L41.2403 58.3302L40.2997 59.4935L28.222 49.7277L36.3002 39.737Z" fill="#FFD953"/>
<path d="M44.6423 42.0758C43.844 41.043 43.3205 39.9462 43.0718 38.7851C42.8231 37.6241 42.8392 36.5179 43.1202 35.4665C43.4038 34.3945 43.8615 33.3918 44.4933 32.4585C45.1367 31.5162 45.9225 30.6863 46.8508 29.9687C47.1525 29.7355 47.4574 29.5183 47.7654 29.3173C48.0734 29.1162 48.5334 28.8719 49.1453 28.5843C49.7687 28.2877 50.3817 28.0734 50.9841 27.9414C51.5891 27.7888 52.2981 27.7227 53.111 27.7431C53.9355 27.7546 54.7371 27.9043 55.5158 28.1921C56.9935 28.7368 58.2033 29.6183 59.1452 30.8367C60.3203 32.3568 60.8774 34.0487 60.8166 35.9124C60.783 36.8282 60.608 37.705 60.2917 38.5428C59.9869 39.3716 59.597 40.0901 59.1218 40.6985C58.6377 41.2952 58.2279 41.7603 57.8924 42.0937C57.557 42.4272 57.2152 42.7285 56.8671 42.9976C56.577 43.2218 56.2721 43.439 55.9525 43.649C55.6329 43.859 55.1452 44.1155 54.4896 44.4184C53.8455 44.7124 53.2062 44.9285 52.5716 45.0669C51.937 45.2052 51.194 45.2512 50.3426 45.205C49.5028 45.1498 48.6859 44.9563 47.8919 44.6247C46.6225 44.0858 45.5394 43.2362 44.6423 42.0758ZM57.6166 31.6291C56.4953 30.1786 55.0152 29.367 53.1762 29.1944C51.3282 29.0101 49.4876 29.6266 47.6542 31.0439C46.1341 32.219 45.155 33.5783 44.7169 35.1219C44.4908 35.9085 44.434 36.8423 44.5466 37.9231C44.6618 38.9834 45.1365 40.0532 45.9707 41.1323C46.5448 41.8749 47.221 42.4738 47.9991 42.9289C48.6887 43.3413 49.4128 43.6065 50.1714 43.7245C50.9326 43.822 51.6015 43.8239 52.1781 43.7305C52.7573 43.6164 53.3457 43.4303 53.9433 43.1723C54.541 42.9142 54.988 42.6891 55.2844 42.497C55.5925 42.296 55.8741 42.0968 56.1294 41.8994C57.1621 41.1011 57.9416 40.239 58.4679 39.3131C58.9968 38.3666 59.271 37.4502 59.2903 36.564C59.3123 35.6572 59.1824 34.7936 58.9005 33.9734C58.6097 33.1415 58.1817 32.3601 57.6166 31.6291Z" fill="#FFD953"/>
<path d="M61.2043 20.9497L72.4616 16.3364C73.8052 15.7858 75.0587 15.8664 76.2223 16.5784C76.9204 17.0056 77.428 17.6059 77.745 18.3795C78.1065 19.2616 78.1542 20.0742 77.8881 20.8173C77.622 21.5604 77.1707 22.1416 76.5342 22.5609C77.5718 22.2308 78.5202 22.3018 79.3794 22.7739C80.2522 23.2405 80.8888 23.9623 81.2892 24.9394C81.8565 26.3237 81.8002 27.5594 81.1203 28.6464C80.6044 29.476 79.661 30.1716 78.2903 30.7334L67.094 35.3217L61.2043 20.9497ZM63.0844 21.5345L65.17 26.6237L73.9438 23.0281C74.5953 22.7611 75.1199 22.4748 75.5177 22.1691C75.929 21.8579 76.2209 21.4292 76.3934 20.883C76.5818 20.2986 76.5481 19.6942 76.2923 19.0699C76.0754 18.5406 75.7518 18.1185 75.3215 17.8035C74.8339 17.4644 74.3383 17.3188 73.8349 17.3666C73.3314 17.4144 72.7404 17.5774 72.0618 17.8554L63.0844 21.5345ZM65.6706 27.8451L68.0065 33.545L77.8185 29.524C79.2028 28.9567 79.9544 28.1414 80.0735 27.0782C80.1342 26.5302 80.0645 26.012 79.8643 25.5234C79.5806 24.8313 79.1555 24.316 78.5888 23.9776C78.1672 23.7224 77.68 23.5972 77.1272 23.6018C76.5879 23.6009 76.1295 23.662 75.7519 23.785C75.3824 23.8889 74.9058 24.0604 74.3223 24.2996L65.6706 27.8451Z" fill="#FFD953"/>
<path d="M101.919 25.9612L100.329 26.1832L97.7893 22.4726L87.8754 23.8564L86.471 28.1174L84.9239 28.3333L90.3594 11.8921L92.0154 11.661L101.919 25.9612ZM97.0089 21.3376L91.379 13.1493L88.2934 22.5541L97.0089 21.3376Z" fill="#FFD953"/>
<path d="M122.271 12.2597L120.597 27.7013L119.11 27.5402L119.847 20.738L113.285 20.027C112.134 19.9021 111.185 19.9468 110.438 20.161C109.692 20.3752 109.123 20.7266 108.731 21.2152C108.34 21.6892 108.02 22.193 107.771 22.7265C107.536 23.2617 107.242 23.8569 106.891 24.5122C106.541 25.1529 106.131 25.6764 105.659 26.0826L103.734 25.874C104.193 25.5844 104.608 25.1573 104.979 24.5927C105.365 24.0296 105.684 23.4667 105.937 22.904C106.206 22.3283 106.495 21.7695 106.804 21.2277C107.114 20.6859 107.517 20.2354 108.013 19.8761C108.524 19.5184 109.127 19.3329 109.822 19.3197C107.213 19.0222 106.042 17.6414 106.309 15.1772C106.469 13.7045 107.058 12.625 108.077 11.9387C109.111 11.2394 110.438 10.9775 112.056 11.1529L122.271 12.2597ZM119.989 19.4257L120.641 13.4109L112.198 12.496C110.959 12.3617 109.96 12.5264 109.202 12.9901C108.458 13.4553 108.028 14.2201 107.913 15.2846C107.858 15.7949 107.891 16.2411 108.011 16.623C108.149 16.9919 108.323 17.2838 108.536 17.4986C108.749 17.7134 109.053 17.9013 109.449 18.0622C109.846 18.2085 110.211 18.3144 110.543 18.3799C110.891 18.4324 111.321 18.4863 111.831 18.5416L119.989 19.4257Z" fill="#FFD953"/>
<path d="M167.505 35.0884L168.528 36.1802L163.711 40.6921L167.847 45.1076C168.549 45.8569 169.227 46.3876 169.88 46.6995C170.544 47.0221 171.179 47.1415 171.783 47.0575C172.409 46.9742 172.958 46.8313 173.432 46.6289C173.926 46.4272 174.51 46.1609 175.185 45.8302C175.871 45.4895 176.444 45.254 176.905 45.1238L178.018 46.312C177.527 46.4101 176.966 46.5941 176.334 46.8639C175.724 47.1345 175.166 47.386 174.66 47.6185C174.175 47.8517 173.655 48.0578 173.099 48.2367C172.554 48.4057 171.986 48.4649 171.396 48.4145C170.807 48.3641 170.221 48.1789 169.64 47.859C170.074 48.558 170.305 49.2556 170.334 49.9518C170.374 50.6379 170.249 51.2979 169.958 51.9318C169.679 52.5556 169.358 53.1469 168.998 53.7058C168.647 54.2755 168.274 54.8962 167.878 55.5681C167.503 56.2407 167.255 56.8552 167.133 57.4115L166.02 56.2233C166.097 55.7693 166.28 55.2668 166.568 54.7159C166.865 54.1757 167.172 53.6876 167.487 53.2518C167.812 52.8266 168.098 52.3379 168.344 51.7856C168.611 51.234 168.78 50.6947 168.849 50.1678C168.918 49.6409 168.808 49.0302 168.519 48.336C168.241 47.6524 167.761 46.9466 167.079 46.2187L162.748 41.5944L157.192 46.7981L156.169 45.7062L167.505 35.0884Z" fill="#FFD953"/>
<path d="M175.277 55.3484C176.424 54.7263 177.591 54.3859 178.777 54.3269C179.963 54.268 181.052 54.4617 182.045 54.908C183.057 55.3601 183.973 55.973 184.793 56.7465C185.62 57.5329 186.313 58.4419 186.872 59.4735C187.053 59.8087 187.219 60.1445 187.368 60.4808C187.517 60.8172 187.684 61.3104 187.869 61.9606C188.062 62.6236 188.175 63.263 188.208 63.8788C188.262 64.5005 188.213 65.2109 188.062 66.0099C187.919 66.8219 187.642 67.589 187.233 68.3113C186.458 69.6823 185.393 70.7348 184.04 71.4686C182.35 72.3842 180.591 72.6623 178.761 72.3028C177.863 72.1225 177.025 71.8089 176.249 71.362C175.48 70.9281 174.834 70.4277 174.31 69.861C173.798 69.2873 173.405 68.8081 173.13 68.4234C172.855 68.0387 172.612 67.653 172.403 67.2662C172.228 66.9438 172.063 66.608 171.907 66.2588C171.751 65.9095 171.576 65.387 171.382 64.6912C171.196 64.0083 171.085 63.3426 171.05 62.694C171.016 62.0454 171.09 61.3047 171.272 60.4718C171.462 59.6517 171.784 58.8765 172.239 58.1461C172.975 56.9799 173.987 56.0473 175.277 55.3484ZM183.503 69.8326C185.115 68.9589 186.154 67.6284 186.62 65.8411C187.098 64.0467 186.786 62.1309 185.681 60.0936C184.766 58.4045 183.581 57.2197 182.128 56.5393C181.388 56.1897 180.476 55.9836 179.391 55.9211C178.326 55.8644 177.194 56.1611 175.994 56.8111C175.169 57.2584 174.47 57.8295 173.895 58.5245C173.377 59.1388 172.999 59.8109 172.761 60.5406C172.543 61.2763 172.433 61.9362 172.433 62.5203C172.452 63.1103 172.541 63.721 172.7 64.3523C172.859 64.9837 173.009 65.461 173.151 65.7845C173.3 66.1208 173.451 66.4308 173.605 66.7145C174.227 67.8621 174.953 68.77 175.782 69.4382C176.631 70.1123 177.492 70.5301 178.363 70.6916C179.255 70.859 180.128 70.8695 180.983 70.7231C181.851 70.5697 182.691 70.2729 183.503 69.8326Z" fill="#FFD953"/>
<path d="M182.115 94.8209L181.804 93.4703L195.224 90.3758L180.38 87.2963L180.034 85.7957L191.892 76.514L178.601 79.5788L178.284 78.2068L193.419 74.7169L193.864 76.6463L181.589 86.2725L196.815 89.4444L197.25 91.3309L182.115 94.8209Z" fill="#FFD953"/>
<path d="M181.898 115.012L181.956 113.517L196.157 114.066L196.648 101.359L182.446 100.811L182.504 99.3158L198.024 99.9151L197.418 115.611L181.898 115.012Z" fill="#FFD953"/>
<path d="M176.789 134.307L177.238 132.765L181.664 131.97L184.465 122.359L181.153 119.332L181.59 117.832L194.36 129.529L193.892 131.134L176.789 134.307ZM183.019 131.723L192.795 129.943L185.481 123.274L183.019 131.723Z" fill="#FFD953"/>
<path d="M167.583 150.579L168.328 149.307L174.877 153.143L181.472 141.887L174.922 138.05L175.69 136.74L189.092 144.591L188.324 145.901L182.592 142.543L175.997 153.8L181.73 157.158L180.985 158.43L167.583 150.579Z" fill="#FFD953"/>
<path d="M165.146 153.758L176.129 164.741L175.071 165.799L166.437 157.165L164.757 174.091L165.768 175.102L164.71 176.16L153.728 165.177L154.785 164.119L163.575 172.908L165.255 155.983L164.088 154.816L165.146 153.758Z" fill="#FFD953"/>
<path d="M144.718 189.049L136.867 175.647L138.158 174.891L141.616 180.795L147.311 177.459C148.311 176.873 149.046 176.272 149.518 175.656C149.99 175.039 150.238 174.418 150.262 173.792C150.294 173.179 150.251 172.583 150.134 172.006C150.004 171.436 149.885 170.783 149.777 170.048C149.677 169.325 149.695 168.66 149.832 168.052L151.503 167.074C151.306 167.58 151.227 168.17 151.265 168.845C151.291 169.527 151.369 170.169 151.501 170.772C151.628 171.394 151.729 172.015 151.803 172.635C151.877 173.254 151.821 173.856 151.636 174.44C151.439 175.032 151.065 175.54 150.515 175.964C152.788 174.65 154.55 175.062 155.803 177.201C156.552 178.479 156.722 179.697 156.312 180.855C155.897 182.033 154.987 183.033 153.583 183.856L144.718 189.049ZM142.283 181.934L145.341 187.154L152.669 182.862C153.744 182.232 154.449 181.505 154.782 180.68C155.102 179.864 154.992 178.994 154.451 178.07C154.191 177.627 153.899 177.288 153.575 177.053C153.245 176.838 152.931 176.708 152.632 176.662C152.333 176.616 151.977 176.646 151.563 176.753C151.157 176.872 150.801 177.004 150.495 177.149C150.184 177.314 149.807 177.527 149.364 177.786L142.283 181.934Z" fill="#FFD953"/>
</svg>
