<svg width="100" height="58" viewBox="0 0 100 58" fill="none" xmlns="http://www.w3.org/2000/svg">
<rect width="100" height="58" fill="#FFD953"/>
<path d="M20.4 28.04V35.6H32.8V40H15.8V12H32.6V16.4H20.4V23.68H31.6V28.04H20.4ZM50.0166 40.52C45.8032 40.52 42.3099 39.1333 39.5366 36.36C36.7632 33.5333 35.3766 30.08 35.3766 26C35.3766 21.8933 36.7632 18.4533 39.5366 15.68C42.2832 12.88 45.7766 11.48 50.0166 11.48C52.5499 11.48 54.8832 12.08 57.0166 13.28C59.1766 14.48 60.8566 16.1067 62.0566 18.16L58.0566 20.48C57.3099 19.0933 56.2166 18 54.7766 17.2C53.3632 16.3733 51.7766 15.96 50.0166 15.96C47.0566 15.96 44.6299 16.9067 42.7366 18.8C40.8966 20.6667 39.9766 23.0667 39.9766 26C39.9766 28.9333 40.8966 31.3333 42.7366 33.2C44.6299 35.0933 47.0566 36.04 50.0166 36.04C51.7766 36.04 53.3766 35.64 54.8166 34.84C56.2566 34.0133 57.3366 32.9067 58.0566 31.52L62.0566 33.8C60.9099 35.8267 59.2432 37.4667 57.0566 38.72C54.9499 39.92 52.6032 40.52 50.0166 40.52ZM75.2781 25.64L86.9981 40H81.5181L70.4781 26.68V40H65.8781V12H70.4781V24.56L81.1181 12H86.5981L75.2781 25.64Z" fill="#343333"/>
</svg>
