<svg width="24" height="24" viewBox="0 0 24 24" fill="none" xmlns="http://www.w3.org/2000/svg">
<path d="M14.356 2.59494C14.3771 2.56841 14.4034 2.54644 14.4332 2.53037C14.4631 2.5143 14.4959 2.50447 14.5296 2.50148C14.5634 2.49848 14.5974 2.50239 14.6296 2.51296C14.6618 2.52352 14.6916 2.54053 14.717 2.56294L15.638 3.37494L12.739 6.99994H14.66L16.766 4.36794L18.418 5.82494C18.4668 5.86811 18.4969 5.92865 18.5018 5.99366C18.5066 6.05866 18.4859 6.123 18.444 6.17294L17.754 6.99994H19.698C19.9388 6.64742 20.0424 6.21903 19.9894 5.79542C19.9363 5.37182 19.7303 4.98221 19.41 4.69994L15.71 1.43694C15.5315 1.27975 15.3228 1.16058 15.0968 1.08674C14.8707 1.01289 14.6319 0.9859 14.395 1.00743C14.1581 1.02895 13.9282 1.09854 13.7191 1.21193C13.51 1.32532 13.3262 1.48015 13.179 1.66694L8.976 6.99994H10.886L14.356 2.59494ZM5.25 6.49994C5.05109 6.49994 4.86032 6.57896 4.71967 6.71961C4.57902 6.86026 4.5 7.05103 4.5 7.24994C4.5 7.44885 4.57902 7.63962 4.71967 7.78027C4.86032 7.92093 5.05109 7.99994 5.25 7.99994H18.25C19.112 7.99994 19.9386 8.34235 20.5481 8.95185C21.1576 9.56134 21.5 10.388 21.5 11.2499V17.7499C21.5 18.6119 21.1576 19.4385 20.5481 20.048C19.9386 20.6575 19.112 20.9999 18.25 20.9999H6.25C5.38805 20.9999 4.5614 20.6575 3.9519 20.048C3.34241 19.4385 3 18.6119 3 17.7499V7.24994C3 6.65321 3.23705 6.08091 3.65901 5.65895C4.08097 5.237 4.65326 4.99994 5.25 4.99994H9.57L8.378 6.49994H5.25ZM15.5 14.7499C15.5 15.1639 15.836 15.4999 16.25 15.4999H18.25C18.4489 15.4999 18.6397 15.4209 18.7803 15.2803C18.921 15.1396 19 14.9489 19 14.7499C19 14.551 18.921 14.3603 18.7803 14.2196C18.6397 14.079 18.4489 13.9999 18.25 13.9999H16.25C16.0511 13.9999 15.8603 14.079 15.7197 14.2196C15.579 14.3603 15.5 14.551 15.5 14.7499Z" fill="#343333"/>
</svg>
