<svg width="24" height="24" viewBox="0 0 24 24" fill="none" xmlns="http://www.w3.org/2000/svg">
<path d="M3.01075 16.4138C3.17792 17.6841 3.80179 18.8502 4.76584 19.6942C5.7299 20.5382 6.96821 21.0023 8.2495 21.0001C15.6933 21.0001 21.7495 14.9438 21.7495 7.50005C21.7518 6.21876 21.2876 4.98045 20.4436 4.01639C19.5996 3.05234 18.4336 2.42847 17.1633 2.2613C16.842 2.22208 16.5167 2.2878 16.2359 2.44865C15.9551 2.60951 15.7338 2.85687 15.6051 3.1538L13.6251 7.57412V7.58537C13.5266 7.81267 13.4859 8.06083 13.5067 8.30769C13.5275 8.55455 13.6091 8.79242 13.7442 9.00005C13.7611 9.02537 13.7789 9.0488 13.7976 9.07224L15.7495 11.386C15.0473 12.8129 13.5548 14.2922 12.1092 14.9963L9.82732 13.0547C9.80491 13.0359 9.78143 13.0184 9.757 13.0022C9.54954 12.8639 9.31085 12.7794 9.06253 12.7565C8.81421 12.7336 8.5641 12.7729 8.33482 12.871L8.32263 12.8766L3.90606 14.8557C3.6086 14.9839 3.36064 15.205 3.19925 15.4858C3.03787 15.7667 2.97174 16.0922 3.01075 16.4138Z" fill="#343333"/>
</svg>
