<svg width="17" height="22" viewBox="0 0 17 22" fill="none" xmlns="http://www.w3.org/2000/svg">
<g id="Group">
<path id="Vector" d="M14.6801 0H1.93359C0.86741 0 0 0.86741 0 1.93359V20.0664C0 21.1326 0.86741 22 1.93359 22H14.6801C15.7462 22 16.6137 21.1326 16.6137 20.0664V1.93359C16.6137 0.86741 15.7462 0 14.6801 0ZM2.62509 3.79629C2.62509 3.5127 2.85712 3.28066 3.14072 3.28066H13.6454C13.929 3.28066 14.161 3.5127 14.161 3.79629V5.76207C14.1611 6.04566 13.9291 6.27769 13.6455 6.27769H3.14072C2.85712 6.27769 2.62509 6.04566 2.62509 5.76207V3.79629ZM8.90957 10.8451H7.70417C7.34817 10.8451 7.05964 10.5565 7.05964 10.2006V9.32473C7.05964 8.96878 7.34822 8.6802 7.70417 8.6802H8.90957C9.26552 8.6802 9.5541 8.96878 9.5541 9.32473V10.2006C9.5541 10.5565 9.26552 10.8451 8.90957 10.8451ZM9.5541 13.4765V14.3523C9.5541 14.7082 9.26552 14.9968 8.90957 14.9968H7.70417C7.34822 14.9968 7.05964 14.7082 7.05964 14.3523V13.4765C7.05964 13.1205 7.34817 12.8319 7.70417 12.8319H8.90957C9.26552 12.8319 9.5541 13.1205 9.5541 13.4765ZM4.94699 18.504C4.94699 18.86 4.65841 19.1486 4.30246 19.1486H3.09706C2.74111 19.1486 2.45253 18.86 2.45253 18.504V17.6282C2.45253 17.2722 2.74111 16.9837 3.09706 16.9837H4.30246C4.65841 16.9837 4.94699 17.2722 4.94699 17.6282V18.504ZM4.94699 14.3523C4.94699 14.7082 4.65841 14.9968 4.30246 14.9968H3.09706C2.74111 14.9968 2.45253 14.7082 2.45253 14.3523V13.4765C2.45253 13.1205 2.74111 12.8319 3.09706 12.8319H4.30246C4.65841 12.8319 4.94699 13.1205 4.94699 13.4765V14.3523ZM4.94699 10.2006C4.94699 10.5565 4.65841 10.8451 4.30246 10.8451H3.09706C2.74111 10.8451 2.45253 10.5565 2.45253 10.2006V9.32473C2.45253 8.96878 2.74111 8.6802 3.09706 8.6802H4.30246C4.65841 8.6802 4.94699 8.96878 4.94699 9.32473V10.2006ZM14.1611 18.504C14.1611 18.86 13.8725 19.1486 13.5166 19.1486H7.70413C7.34817 19.1486 7.05959 18.86 7.05959 18.504V17.6282C7.05959 17.2722 7.34813 16.9837 7.70413 16.9837H13.5166C13.8725 16.9837 14.1611 17.2722 14.1611 17.6282V18.504ZM14.1611 14.3523C14.1611 14.7082 13.8725 14.9968 13.5166 14.9968H12.3111C11.9552 14.9968 11.6666 14.7082 11.6666 14.3523V13.4765C11.6666 13.1205 11.9552 12.8319 12.3111 12.8319H13.5166C13.8725 12.8319 14.1611 13.1205 14.1611 13.4765V14.3523ZM14.1611 10.2006C14.1611 10.5565 13.8725 10.8451 13.5166 10.8451H12.3111C11.9552 10.8451 11.6666 10.5565 11.6666 10.2006V9.32473C11.6666 8.96878 11.9552 8.6802 12.3111 8.6802H13.5166C13.8725 8.6802 14.1611 8.96878 14.1611 9.32473V10.2006Z" fill="#343333"/>
</g>
</svg>
