<svg width="24" height="24" viewBox="0 0 24 24" fill="none" xmlns="http://www.w3.org/2000/svg">
<path d="M5.75781 22H17.4766C18.4459 22 19.2344 21.2115 19.2344 20.2422V7.85938H15.1328C14.1635 7.85938 13.375 7.07086 13.375 6.10156V2H5.75781C4.78852 2 4 2.78852 4 3.75781V20.2422C4 21.2115 4.78852 22 5.75781 22ZM8.10156 10.2422H15.1328C15.4567 10.2422 15.7188 10.5043 15.7188 10.8281C15.7188 11.152 15.4567 11.4141 15.1328 11.4141H8.10156C7.7777 11.4141 7.51562 11.152 7.51562 10.8281C7.51562 10.5043 7.7777 10.2422 8.10156 10.2422ZM8.10156 12.5859H15.1328C15.4567 12.5859 15.7188 12.848 15.7188 13.1719C15.7188 13.4957 15.4567 13.7578 15.1328 13.7578H8.10156C7.7777 13.7578 7.51562 13.4957 7.51562 13.1719C7.51562 12.848 7.7777 12.5859 8.10156 12.5859ZM8.10156 14.9297H15.1328C15.4567 14.9297 15.7188 15.1918 15.7188 15.5156C15.7188 15.8395 15.4567 16.1016 15.1328 16.1016H8.10156C7.7777 16.1016 7.51562 15.8395 7.51562 15.5156C7.51562 15.1918 7.7777 14.9297 8.10156 14.9297ZM8.10156 17.2734H12.7891C13.1129 17.2734 13.375 17.5355 13.375 17.8594C13.375 18.1832 13.1129 18.4453 12.7891 18.4453H8.10156C7.7777 18.4453 7.51562 18.1832 7.51562 17.8594C7.51562 17.5355 7.7777 17.2734 8.10156 17.2734Z" fill="#343333"/>
<path d="M15.1328 6.68744H18.8911L14.5469 2.34326V6.1015C14.5469 6.42479 14.8095 6.68744 15.1328 6.68744Z" fill="#343333"/>
</svg>
