<svg width="39" height="48" viewBox="0 0 39 48" fill="none" xmlns="http://www.w3.org/2000/svg">
<g clip-path="url(#clip0_237_1023)">
<path d="M0.77417 0.624023H38.0322V37.6704H0.77417V0.624023Z" fill="#F63D37"/>
<path d="M33.9289 7.69931L29.758 14.3905C29.3031 15.1393 29.3709 15.7345 29.5838 16.3009L35.9128 32.3617H9.70635C7.35473 32.3617 5.5257 30.4897 5.5257 28.2529L5.50635 6.87371C5.57409 4.10891 9.62893 4.07051 9.70635 6.86411V26.9089C9.69667 27.5425 10.258 28.2529 11.0031 28.2433H30.1934L25.2289 16.6369C25.1031 16.1953 25.0063 15.7441 25.0063 15.3025C25.0063 14.8129 25.2289 14.0257 25.5483 13.3921L30.116 5.93291C30.4547 5.27051 31.1322 4.81931 31.9451 4.78091C33.0773 4.73291 34.0547 5.51051 34.1031 6.71051C34.1031 6.95051 34.0451 7.46891 33.9289 7.69931Z" fill="white"/>
<path d="M19.471 21.2065V6.86407C19.471 4.07047 23.5839 4.04167 23.6323 6.86407V21.3601C23.6323 24.6817 21.1355 26.8705 18.0775 26.8705C15.0194 26.8705 12.5129 24.6241 12.5129 21.3601V6.86407C12.5129 4.07047 16.6742 4.07047 16.6742 6.86407V21.2065C16.6742 23.1265 19.471 23.2513 19.471 21.2065Z" fill="white"/>
<path d="M6.36766 41.1455V47.0207H4.71282V42.5567H3.53217V44.8799C3.53217 45.7247 3.44508 47.0975 1.38379 47.0975C1.13217 47.0975 0.948302 47.0879 0.687012 47.0207V45.6191C0.812818 45.6479 0.928947 45.6767 1.05475 45.6767C1.78056 45.6767 1.86766 45.2159 1.86766 44.3903V41.1455H6.36766Z" fill="#2C2E35"/>
<path d="M8.93213 41.1455L10.0934 43.6127L11.0418 41.1455H12.8418L10.1805 47.0207H8.39988L9.2031 45.4079L6.97729 41.1455H8.93213Z" fill="#2C2E35"/>
<path d="M13.3936 41.1455H15.0581V43.6127L16.8387 41.1455H18.7839L16.5387 43.9967L18.8419 47.0207H16.771L15.0581 44.4959V47.0207H13.3936V41.1455Z" fill="#2C2E35"/>
<path d="M27.8709 41.1457V44.6785L30.1644 41.1457H31.7902V47.0209H30.1838V43.4977L27.8902 47.0209H26.2644V41.1457H27.8709ZM30.8031 39.8881C30.4838 40.5793 29.7289 40.8289 29.0225 40.8289C28.3257 40.8289 27.5709 40.5793 27.2515 39.8881L28.1999 39.5425C28.3547 39.9457 28.7225 40.0321 29.0225 40.0321C29.3321 40.0321 29.6999 39.9457 29.8547 39.5425L30.8031 39.8881Z" fill="#2C2E35"/>
<path d="M38.1 41.1455V47.0207H36.4452V42.5567H35.2548V44.8799C35.2548 45.7247 35.1677 47.0975 33.1064 47.0975C32.8645 47.0975 32.6806 47.0879 32.4097 47.0207V45.6191C32.5355 45.6479 32.6613 45.6767 32.7774 45.6767C33.5032 45.6767 33.6 45.2159 33.6 44.3903V41.1455H38.1Z" fill="#2C2E35"/>
<path fill-rule="evenodd" clip-rule="evenodd" d="M18.9097 44.0928C18.9097 42.48 19.9548 40.896 22.1806 40.896C24.4064 40.896 25.4419 42.48 25.4419 44.0928C25.4419 45.696 24.4064 47.28 22.1806 47.28C19.9548 47.28 18.9097 45.696 18.9097 44.0928ZM23.6903 44.0928C23.6903 42.9216 22.9645 42.3456 22.1806 42.3456C21.3871 42.3456 20.671 42.9216 20.671 44.0928C20.671 45.2544 21.3871 45.8304 22.1806 45.8304C22.9645 45.8304 23.6903 45.2544 23.6903 44.0928Z" fill="#2C2E35"/>
</g>
<defs>
<clipPath id="clip0_237_1023">
<rect width="38.7097" height="48" fill="white"/>
</clipPath>
</defs>
</svg>
