<svg width="24" height="24" viewBox="0 0 24 24" fill="none" xmlns="http://www.w3.org/2000/svg">
<path d="M13.6714 14.7433C13.1739 15.075 12.5959 15.2504 12 15.2504C11.4041 15.2504 10.8262 15.075 10.3286 14.7433L2.13316 9.27951C2.08792 9.24926 2.04352 9.21778 2 9.1851L2 18.1381C2 19.1646 2.83301 19.9792 3.84113 19.9792H20.1588C21.1853 19.9792 22 19.1462 22 18.1381V9.18506C21.9564 9.21783 21.9119 9.24938 21.8665 9.27967L13.6714 14.7433Z" fill="#343333"/>
<path d="M2.7832 8.30438L10.9786 13.7682C11.2889 13.975 11.6444 14.0784 12 14.0784C12.3555 14.0784 12.7111 13.975 13.0214 13.7682L21.2168 8.30438C21.7072 7.97762 22 7.43074 22 6.84051C22 5.82563 21.1743 5 20.1595 5H3.84051C2.82567 5.00004 2 5.82566 2 6.84148C1.9997 7.13102 2.07106 7.41613 2.20771 7.67138C2.34437 7.92664 2.54208 8.1441 2.7832 8.30438Z" fill="#343333"/>
</svg>
