<svg width="24" height="24" viewBox="0 0 24 24" fill="none" xmlns="http://www.w3.org/2000/svg">
<path fill-rule="evenodd" clip-rule="evenodd" d="M13.4213 1.36588L14.8503 2.43557C15.2412 2.72812 15.6526 2.87784 16.14 2.90498L17.9223 3.00412C18.9895 3.06346 19.8562 3.79073 20.1 4.83145L20.5071 6.56943C20.6185 7.04474 20.8374 7.42387 21.1933 7.75795L22.4949 8.97956C23.2743 9.71099 23.4707 10.8253 22.9886 11.7792L22.1833 13.3722C21.9631 13.8079 21.887 14.239 21.945 14.7238L22.1568 16.4962C22.2837 17.5575 21.718 18.5373 20.7355 18.9581L19.0945 19.6609C18.6458 19.8531 18.3104 20.1344 18.0432 20.543L17.0662 22.0369C16.4812 22.9314 15.418 23.3184 14.3949 23.0092L12.6862 22.4928C12.2189 22.3516 11.7812 22.3516 11.3138 22.4928L9.60513 23.0092C8.58203 23.3184 7.51882 22.9314 6.93382 22.0369L5.9568 20.543C5.68956 20.1344 5.35422 19.8531 4.90549 19.6609L3.26449 18.958C2.28199 18.5372 1.71625 17.5574 1.8431 16.4961L2.05497 14.7237C2.11291 14.2389 2.03688 13.8078 1.81666 13.3721L1.01139 11.7791C0.529236 10.8252 0.72569 9.71095 1.50503 8.97946L2.80661 7.75785C3.16258 7.42378 3.38144 7.04465 3.49277 6.56934L3.89992 4.83135C4.14367 3.79068 5.01044 3.06342 6.07764 3.00403L7.85988 2.90488C8.34733 2.87779 8.75871 2.72803 9.14955 2.43548L10.5786 1.36579C11.4342 0.725385 12.5657 0.725385 13.4213 1.36588ZM11.0883 12.6121L9.53753 11.0613C9.13558 10.6593 8.4836 10.6593 8.08169 11.0613C7.67974 11.4632 7.67974 12.1152 8.08169 12.5171L10.3627 14.7981C10.7646 15.2 11.4166 15.2 11.8185 14.7981C13.1934 13.4232 14.5526 12.0329 15.9212 10.6517C16.3202 10.2489 16.3189 9.59906 15.9167 9.19907C15.5144 8.79899 14.8627 8.80012 14.4632 9.20357L11.0883 12.6121ZM11.9999 4.33368C9.883 4.33368 7.96642 5.19178 6.57911 6.57909C5.1918 7.96645 4.33371 9.88298 4.33371 11.9999C4.33371 14.1168 5.1918 16.0334 6.57911 17.4207C7.96642 18.808 9.883 19.6661 11.9999 19.6661C14.1168 19.6661 16.0334 18.808 17.4207 17.4207C18.8081 16.0334 19.6661 14.1168 19.6661 11.9999C19.6661 9.88298 18.8081 7.9664 17.4207 6.57909C16.0334 5.19178 14.1168 4.33368 11.9999 4.33368ZM16.8904 7.10939C15.6389 5.85782 13.9098 5.08368 11.9999 5.08368C10.09 5.08368 8.36097 5.85782 7.10941 7.10939C5.85785 8.36095 5.0837 10.09 5.0837 11.9999C5.0837 13.9098 5.85785 15.6389 7.10941 16.8904C8.36097 18.142 10.09 18.9161 11.9999 18.9161C13.9098 18.9161 15.6389 18.142 16.8904 16.8905C18.142 15.6389 18.9161 13.9098 18.9161 11.9999C18.9161 10.09 18.142 8.36095 16.8904 7.10939Z" fill="#343333"/>
</svg>
