<?xml version="1.0" encoding="utf-8"?><svg viewBox="0 0 208 208" xmlns="http://www.w3.org/2000/svg" xmlns:xlink="http://www.w3.org/1999/xlink"><style>:root>svg{display:none}:root>svg:target{display:block}</style><svg fill="none" viewBox="0 0 208 208" id="about-us-decor" xmlns="http://www.w3.org/2000/svg"><path d="m86.933 180.875 1.596.179 1.54 4.224 9.948 1.117 2.417-3.78 1.552.174-9.341 14.581-1.662-.186-6.05-16.309Zm3.611 5.696 3.425 9.328 5.32-8.346-8.745-.982ZM76.308 182.463l-8.886 8.08-1.537-.538 9.56-8.543c.997-.894 1.744-1.519 2.24-1.873a5.223 5.223 0 0 1 1.438-.779c.807-.262 1.791-.19 2.954.217.471.165 1.02.419 1.645.762l-.436 1.246c-.626-.343-1.16-.592-1.603-.747a4.825 4.825 0 0 0-1.276-.283 2.37 2.37 0 0 0-1.11.241 8.56 8.56 0 0 0-.814.461c-.187.136-.476.362-.865.676l3.136 13.822-1.744-.61-2.702-12.132ZM49.606 178.955l5.676 3.496 7.453-12.102 1.273.785-7.452 12.101 5.92 3.645-.693 1.124-12.869-7.925.692-1.124ZM35.598 162.666l1.451.405a7.092 7.092 0 0 0-.257 2.056c.007.684.091 1.27.252 1.755.15.476.363.95.638 1.425.264.463.501.819.712 1.065.21.247.43.483.66.709 1.542 1.507 3.287 2.24 5.236 2.198 1.784-.04 3.352-.752 4.706-2.136 1.324-1.352 1.97-2.935 1.94-4.75-.02-1.888-.801-3.585-2.342-5.093-2.108-2.062-4.599-2.703-7.473-1.925l-.513-1.395c1.282-.367 2.52-.468 3.715-.305 1.963.279 3.725 1.183 5.287 2.712 1.552 1.518 2.477 3.162 2.777 4.932a7.91 7.91 0 0 1-.286 3.784 8.334 8.334 0 0 1-2.002 3.273c-1.364 1.394-2.979 2.185-4.844 2.371a8.748 8.748 0 0 1-2.506-.113c-.82-.167-1.534-.424-2.14-.77-.625-.346-1.116-.652-1.472-.917a8.286 8.286 0 0 1-1.02-.845c-1.73-1.692-2.659-3.637-2.786-5.835-.05-.684.04-1.551.267-2.601ZM35.4 156.239c-1.12.672-2.27 1.064-3.452 1.175-1.182.111-2.279-.034-3.29-.436a9.796 9.796 0 0 1-2.827-1.715 10.925 10.925 0 0 1-2.197-2.632 13.973 13.973 0 0 1-.54-.985c-.164-.329-.353-.815-.567-1.456a8.545 8.545 0 0 1-.424-1.901c-.08-.619-.063-1.331.052-2.136a7.18 7.18 0 0 1 .727-2.336c.714-1.404 1.73-2.502 3.05-3.295 1.648-.989 3.393-1.345 5.237-1.067a8.27 8.27 0 0 1 2.55.829c.788.399 1.456.871 2.005 1.414.536.55.95 1.012 1.242 1.384.292.372.551.747.778 1.124.189.314.369.642.54.984.171.342.369.856.593 1.543.217.674.357 1.334.42 1.981.063.646.022 1.389-.123 2.23a7.622 7.622 0 0 1-.863 2.366c-.684 1.197-1.654 2.174-2.911 2.929Zm-8.86-14.106c-1.57.944-2.55 2.319-2.936 4.125-.399 1.814-.002 3.714 1.191 5.7.99 1.647 2.225 2.779 3.707 3.394.755.317 1.676.482 2.762.497 1.067.009 2.185-.337 3.354-1.04a7.033 7.033 0 0 0 2.021-1.804 6.003 6.003 0 0 0 1.044-2.064c.186-.745.266-1.409.24-1.993a8.697 8.697 0 0 0-.347-1.818c-.187-.624-.358-1.094-.514-1.411a13.145 13.145 0 0 0-.495-.909c-.672-1.119-1.437-1.994-2.295-2.625-.878-.636-1.756-1.015-2.634-1.138a7.333 7.333 0 0 0-2.619.085 8.272 8.272 0 0 0-2.478 1.001ZM31.574 133.397l-14.879 4.458-2.961-9.883c-.3-.998-.453-1.893-.461-2.687-.022-.79.232-1.501.761-2.135.561-.734 1.305-1.24 2.232-1.518 1.349-.404 2.561-.216 3.637.564.895.635 1.612 1.852 2.15 3.65l2.432 8.113 6.66-1.995.429 1.433Zm-8.354.941-2.31-7.713c-.51-1.7-1.157-2.784-1.94-3.254-.666-.382-1.414-.449-2.243-.201-.997.299-1.642.883-1.933 1.751-.21.629-.156 1.471.16 2.524l2.576 8.598 5.69-1.705ZM14.246 100.767l.796 1.278a7.104 7.104 0 0 0-1.58 1.342c-.457.509-.79.997-1 1.464-.21.452-.375.946-.493 1.481-.118.52-.184.942-.195 1.266-.012.324-.01.647.008.969.116 2.153.907 3.873 2.372 5.16 1.341 1.175 2.979 1.711 4.912 1.607 1.889-.103 3.436-.832 4.64-2.19 1.261-1.405 1.833-3.184 1.717-5.337-.16-2.943-1.561-5.1-4.206-6.47l.565-1.374c1.192.596 2.174 1.358 2.944 2.286 1.258 1.533 1.945 3.39 2.063 5.573.118 2.167-.312 4.004-1.288 5.511a7.895 7.895 0 0 1-2.768 2.595 8.33 8.33 0 0 1-3.688 1.059c-1.948.105-3.672-.404-5.172-1.527a8.743 8.743 0 0 1-1.77-1.777c-.492-.678-.845-1.35-1.057-2.014-.227-.678-.382-1.235-.465-1.671a8.283 8.283 0 0 1-.18-1.312c-.131-2.417.499-4.478 1.89-6.183.426-.537 1.078-1.116 1.955-1.736ZM26.291 96.608 11.07 93.523l.297-1.466 11.966 2.424-7.952-15.034-1.402-.284.298-1.467 15.222 3.085-.297 1.466L17.02 79.78l7.952 15.035 1.617.327-.297 1.466ZM37.876 62.67l-.649 1.323-6.814-3.342-5.745 11.713 6.815 3.342-.669 1.363-13.945-6.84.669-1.362 5.965 2.925 5.744-11.713-5.965-2.926.65-1.323 13.944 6.84ZM36.3 39.737l1.027.83-7.138 8.827L41.24 58.33l-.94 1.163-12.078-9.765 8.078-9.991ZM44.642 42.076c-.798-1.033-1.322-2.13-1.57-3.29-.249-1.162-.233-2.268.048-3.32a9.805 9.805 0 0 1 1.373-3.008 10.912 10.912 0 0 1 2.358-2.49c.302-.233.606-.45.914-.65.308-.202.768-.446 1.38-.734a8.541 8.541 0 0 1 1.84-.643c.604-.152 1.313-.218 2.126-.198a7.177 7.177 0 0 1 2.405.45c1.477.544 2.687 1.425 3.63 2.644 1.174 1.52 1.731 3.212 1.67 5.075a8.254 8.254 0 0 1-.524 2.63c-.305.83-.695 1.548-1.17 2.157a18.169 18.169 0 0 1-1.23 1.395 10.99 10.99 0 0 1-1.025.904c-.29.224-.595.441-.914.651-.32.21-.808.466-1.463.77a9.488 9.488 0 0 1-1.918.648c-.635.138-1.378.184-2.23.138a7.616 7.616 0 0 1-2.45-.58c-1.27-.54-2.353-1.389-3.25-2.55Zm12.975-10.447c-1.122-1.45-2.602-2.262-4.44-2.435-1.849-.184-3.69.433-5.523 1.85-1.52 1.175-2.499 2.534-2.937 4.078-.226.786-.283 1.72-.17 2.801.115 1.06.59 2.13 1.424 3.21a7.048 7.048 0 0 0 2.028 1.796c.69.412 1.414.677 2.172.795.762.098 1.43.1 2.007.007.58-.115 1.168-.3 1.765-.559.598-.258 1.045-.483 1.341-.675.309-.201.59-.4.845-.598 1.033-.798 1.813-1.66 2.339-2.586.529-.946.803-1.863.822-2.749a7.357 7.357 0 0 0-.39-2.59 8.292 8.292 0 0 0-1.283-2.345ZM61.204 20.95l11.258-4.614c1.343-.55 2.597-.47 3.76.242a3.699 3.699 0 0 1 1.523 1.802c.361.882.41 1.694.143 2.437a3.4 3.4 0 0 1-1.354 1.744c1.038-.33 1.986-.26 2.845.213.873.466 1.51 1.188 1.91 2.165.567 1.385.511 2.62-.169 3.707-.516.83-1.459 1.526-2.83 2.087l-11.196 4.589-5.89-14.372Zm1.88.585 2.086 5.089 8.774-3.596c.651-.267 1.176-.553 1.574-.859.411-.311.703-.74.875-1.286.189-.584.155-1.189-.1-1.813a2.887 2.887 0 0 0-.972-1.267c-.487-.339-.983-.484-1.486-.436-.504.047-1.095.21-1.773.488l-8.978 3.68Zm2.587 6.31 2.335 5.7 9.813-4.021c1.384-.567 2.135-1.383 2.254-2.446a3.128 3.128 0 0 0-.209-1.555c-.283-.692-.709-1.207-1.275-1.545-.422-.256-.909-.38-1.462-.376-.54-.001-.998.06-1.375.183-.37.104-.846.275-1.43.515l-8.651 3.545ZM101.919 25.961l-1.59.222-2.54-3.71-9.914 1.383-1.404 4.261-1.547.216 5.435-16.44 1.656-.232 9.904 14.3Zm-4.91-4.623-5.63-8.189-3.086 9.405 8.716-1.216ZM122.271 12.26 120.597 27.7l-1.487-.16.737-6.803-6.562-.711c-1.151-.125-2.1-.08-2.847.134-.746.214-1.315.566-1.707 1.054a7.068 7.068 0 0 0-.96 1.512c-.235.535-.529 1.13-.88 1.785-.35.64-.76 1.164-1.232 1.57l-1.925-.208c.459-.29.874-.717 1.245-1.281.386-.563.705-1.126.958-1.689.269-.576.558-1.134.867-1.676a4.26 4.26 0 0 1 1.209-1.352c.511-.358 1.114-.543 1.809-.556-2.609-.298-3.78-1.679-3.513-4.143.16-1.473.749-2.552 1.768-3.238 1.034-.7 2.361-.962 3.979-.786l10.215 1.107Zm-2.282 7.166.652-6.015-8.443-.915c-1.239-.134-2.238.03-2.996.494-.744.465-1.174 1.23-1.289 2.295-.055.51-.022.956.098 1.338.138.369.312.66.525.876.213.214.517.402.913.563.397.146.762.252 1.094.318.348.052.778.106 1.288.162l8.158.884ZM167.505 35.088l1.023 1.092-4.817 4.512 4.136 4.416c.702.749 1.38 1.28 2.033 1.592.664.322 1.299.441 1.903.357a6.316 6.316 0 0 0 1.649-.428 29.01 29.01 0 0 0 1.753-.799c.686-.34 1.259-.576 1.72-.706l1.113 1.188c-.491.098-1.052.282-1.684.552-.61.27-1.168.522-1.674.755-.485.233-1.005.439-1.561.618a4.426 4.426 0 0 1-1.703.177 4.404 4.404 0 0 1-1.756-.555c.434.699.665 1.397.694 2.093a4.105 4.105 0 0 1-.376 1.98c-.279.624-.6 1.215-.96 1.774-.351.57-.724 1.19-1.12 1.862-.375.673-.623 1.287-.745 1.843l-1.113-1.188c.077-.454.26-.956.548-1.507.297-.54.604-1.028.919-1.464.325-.425.611-.914.857-1.466.267-.552.436-1.091.505-1.618.069-.527-.041-1.138-.33-1.832-.278-.684-.758-1.39-1.44-2.117l-4.331-4.625-5.556 5.204-1.023-1.092 11.336-10.618ZM175.277 55.348c1.147-.622 2.314-.962 3.5-1.021 1.186-.059 2.275.135 3.268.581a9.816 9.816 0 0 1 2.748 1.838c.827.787 1.52 1.696 2.079 2.727.181.336.347.672.496 1.008.149.336.316.83.501 1.48a8.49 8.49 0 0 1 .339 1.918c.054.622.005 1.332-.146 2.13a7.16 7.16 0 0 1-.829 2.302c-.775 1.371-1.84 2.424-3.193 3.158-1.69.915-3.449 1.193-5.279.834a8.256 8.256 0 0 1-2.512-.941c-.769-.434-1.415-.934-1.939-1.501a17.973 17.973 0 0 1-1.18-1.438c-.275-.384-.518-.77-.727-1.157-.175-.322-.34-.658-.496-1.007-.156-.35-.331-.872-.525-1.568a9.555 9.555 0 0 1-.332-1.997c-.034-.649.04-1.39.222-2.222.19-.82.512-1.596.967-2.326.736-1.166 1.748-2.099 3.038-2.798Zm8.226 14.485c1.612-.874 2.651-2.205 3.117-3.992.478-1.794.166-3.71-.939-5.747-.915-1.69-2.1-2.874-3.553-3.555-.74-.35-1.652-.555-2.737-.618-1.065-.057-2.197.24-3.397.89a7.057 7.057 0 0 0-2.099 1.714 5.988 5.988 0 0 0-1.134 2.016c-.218.735-.328 1.395-.328 1.98.019.59.108 1.2.267 1.831.159.632.309 1.109.451 1.432.149.337.3.647.454.93.622 1.148 1.348 2.056 2.177 2.724.849.674 1.71 1.092 2.581 1.254a7.361 7.361 0 0 0 2.62.031 8.288 8.288 0 0 0 2.52-.89ZM182.115 94.82l-.311-1.35 13.42-3.094-14.844-3.08-.346-1.5 11.858-9.282-13.291 3.065-.317-1.372 15.135-3.49.445 1.93-12.275 9.625 15.226 3.172.435 1.887-15.135 3.49ZM181.898 115.012l.058-1.495 14.201.549.491-12.707-14.202-.548.058-1.495 15.52.6-.606 15.695-15.52-.599ZM176.789 134.307l.449-1.542 4.426-.795 2.801-9.611-3.312-3.027.437-1.5 12.77 11.697-.468 1.605-17.103 3.173Zm6.23-2.584 9.776-1.78-7.314-6.669-2.462 8.449ZM167.583 150.579l.745-1.272 6.549 3.836 6.595-11.256-6.55-3.837.768-1.31 13.402 7.851-.768 1.31-5.732-3.358-6.595 11.257 5.733 3.358-.745 1.272-13.402-7.851ZM165.146 153.758l10.983 10.983-1.058 1.058-8.634-8.634-1.68 16.926 1.011 1.011-1.058 1.058-10.982-10.983 1.057-1.058 8.79 8.789 1.68-16.925-1.167-1.167 1.058-1.058ZM144.718 189.049l-7.851-13.402 1.291-.756 3.458 5.904 5.695-3.336c1-.586 1.735-1.187 2.207-1.803.472-.617.72-1.238.744-1.864a7.096 7.096 0 0 0-.128-1.786c-.13-.57-.249-1.223-.357-1.958-.1-.723-.082-1.388.055-1.996l1.671-.978c-.197.506-.276 1.096-.238 1.771.026.682.104 1.324.236 1.927.127.622.228 1.243.302 1.863a4.243 4.243 0 0 1-.167 1.805c-.197.592-.571 1.1-1.121 1.524 2.273-1.314 4.035-.902 5.288 1.237.749 1.278.919 2.496.509 3.654-.415 1.178-1.325 2.178-2.729 3.001l-8.865 5.193Zm-2.435-7.115 3.058 5.22 7.328-4.292c1.075-.63 1.78-1.357 2.113-2.182.32-.816.21-1.686-.331-2.61-.26-.443-.552-.782-.876-1.017-.33-.215-.644-.345-.943-.391-.299-.046-.655-.016-1.069.091a7.3 7.3 0 0 0-1.068.396c-.311.165-.688.378-1.131.637l-7.081 4.148Z" fill="#FFD953"/></svg><svg fill="none" viewBox="0 0 24 24" id="arrow-right" xmlns="http://www.w3.org/2000/svg"><path d="M3 12h19" stroke="#343333" stroke-width="1.5" stroke-linecap="round"/><path d="m18.5 8 3.5 4-3.5 4" stroke="#343333" stroke-width="1.5" stroke-linecap="round" stroke-linejoin="round"/></svg><svg fill="none" viewBox="0 0 32 32" id="arrow-top" xmlns="http://www.w3.org/2000/svg"><path d="M10.667 22 22 10.667m0 0V20m0-9.333h-9.333" stroke="#343333" stroke-width="1.5" stroke-linecap="round" stroke-linejoin="round"/></svg><svg fill="none" viewBox="0 0 24 24" id="bag" xmlns="http://www.w3.org/2000/svg"><g clip-path="url(#ada)" fill-rule="evenodd" clip-rule="evenodd" fill="#343333"><path d="M7 5a3 3 0 0 1 3-3h4a3 3 0 0 1 3 3v1a1 1 0 0 1-1 1H8a1 1 0 0 1-1-1V5Zm3-1a1 1 0 0 0-1 1h6a1 1 0 0 0-1-1h-4Z"/><path d="M1 8a3 3 0 0 1 3-3h16a3 3 0 0 1 3 3v11a3 3 0 0 1-3 3H4a3 3 0 0 1-3-3V8Zm3-1a1 1 0 0 0-1 1v11a1 1 0 0 0 1 1h16a1 1 0 0 0 1-1V8a1 1 0 0 0-1-1H4Z"/><path d="M4 5a3 3 0 0 0-3 3v3a1 1 0 0 0 .713.958l10 3a.999.999 0 0 0 .574 0l10-3A1 1 0 0 0 23 11V8a3 3 0 0 0-3-3H4Zm7 11v-4h2v4h-2Z"/></g><defs><clipPath id="ada"><path fill="#fff" d="M0 0h24v24H0z"/></clipPath></defs></svg><svg fill="none" viewBox="0 0 44 44" id="burger-btn" xmlns="http://www.w3.org/2000/svg"><path d="M6.875 22h30.25M6.875 11h30.25M6.875 33h30.25" stroke="#fff" stroke-width="2" stroke-linecap="round" stroke-linejoin="round"/></svg><svg fill="none" viewBox="0 0 17 22" id="calc" xmlns="http://www.w3.org/2000/svg"><path d="M14.68 0H1.934A1.936 1.936 0 0 0 0 1.934v18.132C0 21.133.867 22 1.934 22H14.68a1.936 1.936 0 0 0 1.934-1.934V1.934A1.936 1.936 0 0 0 14.68 0ZM2.625 3.796c0-.283.232-.515.516-.515h10.504c.284 0 .516.232.516.515v1.966a.517.517 0 0 1-.515.516H3.14a.517.517 0 0 1-.516-.516V3.796Zm6.285 7.05H7.704a.645.645 0 0 1-.644-.645v-.876c0-.356.288-.645.644-.645H8.91c.356 0 .644.289.644.645v.876a.645.645 0 0 1-.644.644Zm.644 2.63v.876a.645.645 0 0 1-.644.645H7.704a.645.645 0 0 1-.644-.645v-.876c0-.356.288-.644.644-.644H8.91c.356 0 .644.288.644.644Zm-4.607 5.028a.645.645 0 0 1-.645.645H3.097a.645.645 0 0 1-.644-.645v-.876c0-.356.288-.644.644-.644h1.205c.356 0 .645.288.645.644v.876Zm0-4.152a.645.645 0 0 1-.645.645H3.097a.645.645 0 0 1-.644-.645v-.876c0-.356.288-.644.644-.644h1.205c.356 0 .645.288.645.644v.876Zm0-4.151a.645.645 0 0 1-.645.644H3.097a.645.645 0 0 1-.644-.644v-.876c0-.356.288-.645.644-.645h1.205c.356 0 .645.289.645.645v.876Zm9.214 8.303a.645.645 0 0 1-.644.645H7.704a.645.645 0 0 1-.644-.645v-.876c0-.356.288-.644.644-.644h5.813c.356 0 .644.288.644.644v.876Zm0-4.152a.645.645 0 0 1-.644.645H12.31a.645.645 0 0 1-.644-.645v-.876c0-.356.288-.644.644-.644h1.206c.356 0 .644.288.644.644v.876Zm0-4.151a.645.645 0 0 1-.644.644H12.31a.645.645 0 0 1-.644-.644v-.876c0-.356.288-.645.644-.645h1.206c.356 0 .644.289.644.645v.876Z" fill="#343333"/></svg><svg fill="none" viewBox="0 0 24 24" id="care" xmlns="http://www.w3.org/2000/svg"><path d="M18.9 1.267a3.085 3.085 0 0 0-2.132-.832c-.867 0-1.742.342-2.395.996l-.28.28-.28-.281a3.401 3.401 0 0 0-2.395-.995c-.77 0-1.535.27-2.132.832a3.183 3.183 0 0 0-.07 4.57l4.877 4.877 4.877-4.877a3.183 3.183 0 0 0-.07-4.57Zm4.787 11.93c-.75-.507-1.633-.363-2.415.088-.782.451-5.273 4.291-5.273 4.291h-4.42c-.206 0-.429-.23-.429-.435 0-.24.21-.428.429-.428h2.704c.947 0 2.007-.617 2.007-1.714 0-1.165-1.06-1.713-2.007-1.713-1.642 0-1.962.007-1.962.007-.657 0-1.325-.04-1.839-.315a5.073 5.073 0 0 0-2.318-.55c-1.415 0-2.682.565-3.55 1.455L0 18.425l5.14 5.14 1.713-1.713h8.676c.863 0 1.696-.317 2.342-.89l5.874-6.59c.359-.319.338-.905-.058-1.174Z" fill="#343333"/></svg><svg fill="none" viewBox="0 0 22 22" id="close-btn" xmlns="http://www.w3.org/2000/svg"><path d="m4.583 4.583 12.834 12.834M17.417 4.583 4.583 17.417" stroke="#343333" stroke-width="1.5" stroke-linecap="round" stroke-linejoin="round"/></svg><svg fill="none" viewBox="0 0 16 16" id="close-btn-light" xmlns="http://www.w3.org/2000/svg"><g stroke="#fff" stroke-width="1.5" stroke-linecap="round" stroke-linejoin="round"><path d="m1 1 14 14M15 1 1 15"/></g></svg><svg fill="none" viewBox="0 0 20 22" id="file" xmlns="http://www.w3.org/2000/svg"><path d="M7.42 14.373H3.111a.397.397 0 0 1-.396-.397c0-.218.178-.396.396-.396h4.57c.253-.645.59-1.19 1.006-1.735H3.112a.398.398 0 0 1-.396-.397c0-.218.178-.396.396-.396h6.33a6.824 6.824 0 0 1 4.485-1.705c.163 0 .297.015.495.03V5.303h-2.974a2.089 2.089 0 0 1-2.081-2.087V0H1.764C.783 0 0 .803 0 1.79v15.125c0 .986.783 1.77 1.764 1.77h5.972a6.618 6.618 0 0 1-.53-2.617 6.615 6.615 0 0 1 .213-1.696ZM3.111 8.573h5.021a.398.398 0 0 1 0 .793h-5.02a.398.398 0 0 1-.397-.396c0-.219.178-.397.396-.397Z" fill="#343333" fill-opacity=".5"/><path d="M13.921 10.155A5.929 5.929 0 0 0 8 16.078 5.929 5.929 0 0 0 13.922 22a5.929 5.929 0 0 0 5.922-5.922 5.929 5.929 0 0 0-5.923-5.923Zm2.018 6.349h-1.616v1.615a.398.398 0 0 1-.396.397.398.398 0 0 1-.397-.397v-1.615h-1.64a.398.398 0 0 1-.397-.397c0-.218.178-.396.397-.396h1.64v-1.64a.398.398 0 0 1 .793 0v1.64h1.616c.218 0 .396.178.396.396a.398.398 0 0 1-.396.397ZM11.449 4.51h2.428L10.16.6v2.616c0 .71.575 1.294 1.288 1.294Z" fill="#343333" fill-opacity=".5"/></svg><svg fill="none" viewBox="0 0 16 20" id="file-generic" xmlns="http://www.w3.org/2000/svg"><path d="M1.758 20h11.719a1.76 1.76 0 0 0 1.757-1.758V5.86h-4.101a1.76 1.76 0 0 1-1.758-1.757V0H1.758A1.76 1.76 0 0 0 0 1.758v16.484C0 19.212.789 20 1.758 20ZM4.102 8.242h7.03a.586.586 0 1 1 0 1.172h-7.03a.586.586 0 1 1 0-1.172Zm0 2.344h7.03a.586.586 0 1 1 0 1.172h-7.03a.586.586 0 1 1 0-1.172Zm0 2.344h7.03a.586.586 0 1 1 0 1.172h-7.03a.586.586 0 1 1 0-1.172Zm0 2.343h4.687a.586.586 0 1 1 0 1.172H4.102a.586.586 0 1 1 0-1.172Z" fill="#343333" fill-opacity=".5"/><path d="M11.133 4.688h3.758L10.547.343v3.759c0 .323.262.585.586.585Z" fill="#343333" fill-opacity=".5"/></svg><svg fill="none" viewBox="0 0 24 24" id="geo" xmlns="http://www.w3.org/2000/svg"><path d="M12 11.5a2.5 2.5 0 1 1 0-5 2.5 2.5 0 0 1 0 5ZM12 2a7 7 0 0 0-7 7c0 5.25 7 13 7 13s7-7.75 7-13a7 7 0 0 0-7-7Z" fill="#343333"/></svg><svg fill="none" viewBox="0 0 24 24" id="hand-heart" xmlns="http://www.w3.org/2000/svg"><path d="M18.9 1.267a3.085 3.085 0 0 0-2.132-.832c-.867 0-1.742.342-2.395.996l-.28.28-.28-.281a3.401 3.401 0 0 0-2.395-.995c-.77 0-1.535.27-2.132.832a3.183 3.183 0 0 0-.07 4.57l4.877 4.877 4.877-4.877a3.183 3.183 0 0 0-.07-4.57Zm4.787 11.93c-.75-.507-1.633-.363-2.415.088-.782.451-5.273 4.291-5.273 4.291h-4.42c-.206 0-.429-.23-.429-.435 0-.24.21-.428.429-.428h2.704c.947 0 2.007-.617 2.007-1.714 0-1.165-1.06-1.713-2.007-1.713-1.642 0-1.962.007-1.962.007-.657 0-1.325-.04-1.839-.315a5.073 5.073 0 0 0-2.318-.55c-1.415 0-2.682.565-3.55 1.455L0 18.425l5.14 5.14 1.713-1.713h8.676c.863 0 1.696-.317 2.342-.89l5.874-6.59c.359-.319.338-.905-.058-1.174Z" fill="#343333"/></svg><svg fill="none" viewBox="0 0 208 208" id="hero-circle" xmlns="http://www.w3.org/2000/svg"><path d="m86.933 180.875 1.596.179 1.54 4.224 9.948 1.117 2.417-3.78 1.552.174-9.341 14.581-1.662-.186-6.05-16.309Zm3.611 5.696 3.425 9.328 5.32-8.346-8.745-.982ZM76.308 182.463l-8.886 8.08-1.537-.538 9.56-8.543c.997-.894 1.744-1.519 2.24-1.873a5.223 5.223 0 0 1 1.438-.779c.807-.262 1.791-.19 2.954.217.471.165 1.02.419 1.645.762l-.436 1.246c-.626-.343-1.16-.592-1.603-.747a4.825 4.825 0 0 0-1.276-.283 2.37 2.37 0 0 0-1.11.241 8.56 8.56 0 0 0-.814.461c-.187.136-.476.362-.865.676l3.136 13.822-1.744-.61-2.702-12.132ZM49.606 178.955l5.676 3.496 7.453-12.102 1.273.785-7.452 12.101 5.92 3.645-.693 1.124-12.869-7.925.692-1.124ZM35.598 162.666l1.451.405a7.092 7.092 0 0 0-.257 2.056c.007.684.091 1.27.252 1.755.15.476.363.95.638 1.425.264.463.501.819.712 1.065.21.247.43.483.66.709 1.542 1.507 3.287 2.24 5.236 2.198 1.784-.04 3.352-.752 4.706-2.136 1.324-1.352 1.97-2.935 1.94-4.75-.02-1.888-.801-3.585-2.342-5.093-2.108-2.062-4.599-2.703-7.473-1.925l-.513-1.395c1.282-.367 2.52-.468 3.715-.305 1.963.279 3.725 1.183 5.287 2.712 1.552 1.518 2.477 3.162 2.777 4.932a7.91 7.91 0 0 1-.286 3.784 8.334 8.334 0 0 1-2.002 3.273c-1.364 1.394-2.979 2.185-4.844 2.371a8.748 8.748 0 0 1-2.506-.113c-.82-.167-1.534-.424-2.14-.77-.625-.346-1.116-.652-1.472-.917a8.286 8.286 0 0 1-1.02-.845c-1.73-1.692-2.659-3.637-2.786-5.835-.05-.684.04-1.551.267-2.601ZM35.4 156.239c-1.12.672-2.27 1.064-3.452 1.175-1.182.111-2.279-.034-3.29-.436a9.796 9.796 0 0 1-2.827-1.715 10.925 10.925 0 0 1-2.197-2.632 13.973 13.973 0 0 1-.54-.985c-.164-.329-.353-.815-.567-1.456a8.545 8.545 0 0 1-.424-1.901c-.08-.619-.063-1.331.052-2.136a7.18 7.18 0 0 1 .727-2.336c.714-1.404 1.73-2.502 3.05-3.295 1.648-.989 3.393-1.345 5.237-1.067a8.27 8.27 0 0 1 2.55.829c.788.399 1.456.871 2.005 1.414.536.55.95 1.012 1.242 1.384.292.372.551.747.778 1.124.189.314.369.642.54.984.171.342.369.856.593 1.543.217.674.357 1.334.42 1.981.063.646.022 1.389-.123 2.23a7.622 7.622 0 0 1-.863 2.366c-.684 1.197-1.654 2.174-2.911 2.929Zm-8.86-14.106c-1.57.944-2.55 2.319-2.936 4.125-.399 1.814-.002 3.714 1.191 5.7.99 1.647 2.225 2.779 3.707 3.394.755.317 1.676.482 2.762.497 1.067.009 2.185-.337 3.354-1.04a7.033 7.033 0 0 0 2.021-1.804 6.003 6.003 0 0 0 1.044-2.064c.186-.745.266-1.409.24-1.993a8.697 8.697 0 0 0-.347-1.818c-.187-.624-.358-1.094-.514-1.411a13.145 13.145 0 0 0-.495-.909c-.672-1.119-1.437-1.994-2.295-2.625-.878-.636-1.756-1.015-2.634-1.138a7.333 7.333 0 0 0-2.619.085 8.272 8.272 0 0 0-2.478 1.001ZM31.574 133.397l-14.879 4.458-2.961-9.883c-.3-.998-.453-1.893-.461-2.687-.022-.79.232-1.501.761-2.135.561-.734 1.305-1.24 2.232-1.518 1.349-.404 2.561-.216 3.637.564.895.635 1.612 1.852 2.15 3.65l2.432 8.113 6.66-1.995.429 1.433Zm-8.354.941-2.31-7.713c-.51-1.7-1.157-2.784-1.94-3.254-.666-.382-1.414-.449-2.243-.201-.997.299-1.642.883-1.933 1.751-.21.629-.156 1.471.16 2.524l2.576 8.598 5.69-1.705ZM14.246 100.767l.796 1.278a7.104 7.104 0 0 0-1.58 1.342c-.457.509-.79.997-1 1.464-.21.452-.375.946-.493 1.481-.118.52-.184.942-.195 1.266-.012.324-.01.647.008.969.116 2.153.907 3.873 2.372 5.16 1.341 1.175 2.979 1.711 4.912 1.607 1.889-.103 3.436-.832 4.64-2.19 1.261-1.405 1.833-3.184 1.717-5.337-.16-2.943-1.561-5.1-4.206-6.47l.565-1.374c1.192.596 2.174 1.358 2.944 2.286 1.258 1.533 1.945 3.39 2.063 5.573.118 2.167-.312 4.004-1.288 5.511a7.895 7.895 0 0 1-2.768 2.595 8.33 8.33 0 0 1-3.688 1.059c-1.948.105-3.672-.404-5.172-1.527a8.743 8.743 0 0 1-1.77-1.777c-.492-.678-.845-1.35-1.057-2.014-.227-.678-.382-1.235-.465-1.671a8.283 8.283 0 0 1-.18-1.312c-.131-2.417.499-4.478 1.89-6.183.426-.537 1.078-1.116 1.955-1.736ZM26.291 96.608 11.07 93.523l.297-1.466 11.966 2.424-7.952-15.034-1.402-.284.298-1.467 15.222 3.085-.297 1.466L17.02 79.78l7.952 15.035 1.617.327-.297 1.466ZM37.876 62.67l-.649 1.323-6.814-3.342-5.745 11.713 6.815 3.342-.669 1.363-13.945-6.84.669-1.362 5.965 2.925 5.744-11.713-5.965-2.926.65-1.323 13.944 6.84ZM36.3 39.737l1.027.83-7.138 8.827L41.24 58.33l-.94 1.163-12.078-9.765 8.078-9.991ZM44.642 42.076c-.798-1.033-1.322-2.13-1.57-3.29-.249-1.162-.233-2.268.048-3.32a9.805 9.805 0 0 1 1.373-3.008 10.912 10.912 0 0 1 2.358-2.49c.302-.233.606-.45.914-.65.308-.202.768-.446 1.38-.734a8.541 8.541 0 0 1 1.84-.643c.604-.152 1.313-.218 2.126-.198a7.177 7.177 0 0 1 2.405.45c1.477.544 2.687 1.425 3.63 2.644 1.174 1.52 1.731 3.212 1.67 5.075a8.254 8.254 0 0 1-.524 2.63c-.305.83-.695 1.548-1.17 2.157a18.169 18.169 0 0 1-1.23 1.395 10.99 10.99 0 0 1-1.025.904c-.29.224-.595.441-.914.651-.32.21-.808.466-1.463.77a9.488 9.488 0 0 1-1.918.648c-.635.138-1.378.184-2.23.138a7.616 7.616 0 0 1-2.45-.58c-1.27-.54-2.353-1.389-3.25-2.55Zm12.975-10.447c-1.122-1.45-2.602-2.262-4.44-2.435-1.849-.184-3.69.433-5.523 1.85-1.52 1.175-2.499 2.534-2.937 4.078-.226.786-.283 1.72-.17 2.801.115 1.06.59 2.13 1.424 3.21a7.048 7.048 0 0 0 2.028 1.796c.69.412 1.414.677 2.172.795.762.098 1.43.1 2.007.007.58-.115 1.168-.3 1.765-.559.598-.258 1.045-.483 1.341-.675.309-.201.59-.4.845-.598 1.033-.798 1.813-1.66 2.339-2.586.529-.946.803-1.863.822-2.749a7.357 7.357 0 0 0-.39-2.59 8.292 8.292 0 0 0-1.283-2.345ZM61.204 20.95l11.258-4.614c1.343-.55 2.597-.47 3.76.242a3.699 3.699 0 0 1 1.523 1.802c.361.882.41 1.694.143 2.437a3.4 3.4 0 0 1-1.354 1.744c1.038-.33 1.986-.26 2.845.213.873.466 1.51 1.188 1.91 2.165.567 1.385.511 2.62-.169 3.707-.516.83-1.459 1.526-2.83 2.087l-11.196 4.589-5.89-14.372Zm1.88.585 2.086 5.089 8.774-3.596c.651-.267 1.176-.553 1.574-.859.411-.311.703-.74.875-1.286.189-.584.155-1.189-.1-1.813a2.887 2.887 0 0 0-.972-1.267c-.487-.339-.983-.484-1.486-.436-.504.047-1.095.21-1.773.488l-8.978 3.68Zm2.587 6.31 2.335 5.7 9.813-4.021c1.384-.567 2.135-1.383 2.254-2.446a3.128 3.128 0 0 0-.209-1.555c-.283-.692-.709-1.207-1.275-1.545-.422-.256-.909-.38-1.462-.376-.54-.001-.998.06-1.375.183-.37.104-.846.275-1.43.515l-8.651 3.545ZM101.919 25.961l-1.59.222-2.54-3.71-9.914 1.383-1.404 4.261-1.547.216 5.435-16.44 1.656-.232 9.904 14.3Zm-4.91-4.623-5.63-8.189-3.086 9.405 8.716-1.216ZM122.271 12.26 120.597 27.7l-1.487-.16.737-6.803-6.562-.711c-1.151-.125-2.1-.08-2.847.134-.746.214-1.315.566-1.707 1.054a7.068 7.068 0 0 0-.96 1.512c-.235.535-.529 1.13-.88 1.785-.35.64-.76 1.164-1.232 1.57l-1.925-.208c.459-.29.874-.717 1.245-1.281.386-.563.705-1.126.958-1.689.269-.576.558-1.134.867-1.676a4.26 4.26 0 0 1 1.209-1.352c.511-.358 1.114-.543 1.809-.556-2.609-.298-3.78-1.679-3.513-4.143.16-1.473.749-2.552 1.768-3.238 1.034-.7 2.361-.962 3.979-.786l10.215 1.107Zm-2.282 7.166.652-6.015-8.443-.915c-1.239-.134-2.238.03-2.996.494-.744.465-1.174 1.23-1.289 2.295-.055.51-.022.956.098 1.338.138.369.312.66.525.876.213.214.517.402.913.563.397.146.762.252 1.094.318.348.052.778.106 1.288.162l8.158.884ZM167.505 35.088l1.023 1.092-4.817 4.512 4.136 4.416c.702.749 1.38 1.28 2.033 1.592.664.322 1.299.441 1.903.357a6.316 6.316 0 0 0 1.649-.428 29.01 29.01 0 0 0 1.753-.799c.686-.34 1.259-.576 1.72-.706l1.113 1.188c-.491.098-1.052.282-1.684.552-.61.27-1.168.522-1.674.755-.485.233-1.005.439-1.561.618a4.426 4.426 0 0 1-1.703.177 4.404 4.404 0 0 1-1.756-.555c.434.699.665 1.397.694 2.093a4.105 4.105 0 0 1-.376 1.98c-.279.624-.6 1.215-.96 1.774-.351.57-.724 1.19-1.12 1.862-.375.673-.623 1.287-.745 1.843l-1.113-1.188c.077-.454.26-.956.548-1.507.297-.54.604-1.028.919-1.464.325-.425.611-.914.857-1.466.267-.552.436-1.091.505-1.618.069-.527-.041-1.138-.33-1.832-.278-.684-.758-1.39-1.44-2.117l-4.331-4.625-5.556 5.204-1.023-1.092 11.336-10.618ZM175.277 55.348c1.147-.622 2.314-.962 3.5-1.021 1.186-.059 2.275.135 3.268.581a9.816 9.816 0 0 1 2.748 1.838c.827.787 1.52 1.696 2.079 2.727.181.336.347.672.496 1.008.149.336.316.83.501 1.48a8.49 8.49 0 0 1 .339 1.918c.054.622.005 1.332-.146 2.13a7.16 7.16 0 0 1-.829 2.302c-.775 1.371-1.84 2.424-3.193 3.158-1.69.915-3.449 1.193-5.279.834a8.256 8.256 0 0 1-2.512-.941c-.769-.434-1.415-.934-1.939-1.501a17.973 17.973 0 0 1-1.18-1.438c-.275-.384-.518-.77-.727-1.157-.175-.322-.34-.658-.496-1.007-.156-.35-.331-.872-.525-1.568a9.555 9.555 0 0 1-.332-1.997c-.034-.649.04-1.39.222-2.222.19-.82.512-1.596.967-2.326.736-1.166 1.748-2.099 3.038-2.798Zm8.226 14.485c1.612-.874 2.651-2.205 3.117-3.992.478-1.794.166-3.71-.939-5.747-.915-1.69-2.1-2.874-3.553-3.555-.74-.35-1.652-.555-2.737-.618-1.065-.057-2.197.24-3.397.89a7.057 7.057 0 0 0-2.099 1.714 5.988 5.988 0 0 0-1.134 2.016c-.218.735-.328 1.395-.328 1.98.019.59.108 1.2.267 1.831.159.632.309 1.109.451 1.432.149.337.3.647.454.93.622 1.148 1.348 2.056 2.177 2.724.849.674 1.71 1.092 2.581 1.254a7.361 7.361 0 0 0 2.62.031 8.288 8.288 0 0 0 2.52-.89ZM182.115 94.82l-.311-1.35 13.42-3.094-14.844-3.08-.346-1.5 11.858-9.282-13.291 3.065-.317-1.372 15.135-3.49.445 1.93-12.275 9.625 15.226 3.172.435 1.887-15.135 3.49ZM181.898 115.012l.058-1.495 14.201.549.491-12.707-14.202-.548.058-1.495 15.52.6-.606 15.695-15.52-.599ZM176.789 134.307l.449-1.542 4.426-.795 2.801-9.611-3.312-3.027.437-1.5 12.77 11.697-.468 1.605-17.103 3.173Zm6.23-2.584 9.776-1.78-7.314-6.669-2.462 8.449ZM167.583 150.579l.745-1.272 6.549 3.836 6.595-11.256-6.55-3.837.768-1.31 13.402 7.851-.768 1.31-5.732-3.358-6.595 11.257 5.733 3.358-.745 1.272-13.402-7.851ZM165.146 153.758l10.983 10.983-1.058 1.058-8.634-8.634-1.68 16.926 1.011 1.011-1.058 1.058-10.982-10.983 1.057-1.058 8.79 8.789 1.68-16.925-1.167-1.167 1.058-1.058ZM144.718 189.049l-7.851-13.402 1.291-.756 3.458 5.904 5.695-3.336c1-.586 1.735-1.187 2.207-1.803.472-.617.72-1.238.744-1.864a7.096 7.096 0 0 0-.128-1.786c-.13-.57-.249-1.223-.357-1.958-.1-.723-.082-1.388.055-1.996l1.671-.978c-.197.506-.276 1.096-.238 1.771.026.682.104 1.324.236 1.927.127.622.228 1.243.302 1.863a4.243 4.243 0 0 1-.167 1.805c-.197.592-.571 1.1-1.121 1.524 2.273-1.314 4.035-.902 5.288 1.237.749 1.278.919 2.496.509 3.654-.415 1.178-1.325 2.178-2.729 3.001l-8.865 5.193Zm-2.435-7.115 3.058 5.22 7.328-4.292c1.075-.63 1.78-1.357 2.113-2.182.32-.816.21-1.686-.331-2.61-.26-.443-.552-.782-.876-1.017-.33-.215-.644-.345-.943-.391-.299-.046-.655-.016-1.069.091a7.3 7.3 0 0 0-1.068.396c-.311.165-.688.378-1.131.637l-7.081 4.148Z" fill="#FFD953"/></svg><svg fill="none" viewBox="0 0 24 24" id="house" xmlns="http://www.w3.org/2000/svg"><path fill-rule="evenodd" clip-rule="evenodd" d="M11.626 9.22A1 1 0 0 1 12 10v12a1 1 0 0 1-1 1H2a1 1 0 0 1-1-1V12a1 1 0 0 1 .783-.976l9-2a1 1 0 0 1 .843.196ZM3 12.802V21h7v-9.753l-7 1.555Z" fill="#343333"/><path fill-rule="evenodd" clip-rule="evenodd" d="M4 15.5V14h2v1.5H4ZM4 19.5V18h2v1.5H4ZM23 2a1 1 0 0 0-1.179-.984l-11 2A1 1 0 0 0 10 4v18a1 1 0 0 0 1 1h11a1 1 0 0 0 1-1V2Zm-9.5 5.5V6h2v1.5h-2Zm0 3V12h2v-1.5h-2Zm0 6V15h2v1.5h-2Zm4-10.5v1.5h2V6h-2Zm0 6v-1.5h2V12h-2Zm0 3v1.5h2V15h-2ZM7 15.5V14h2v1.5H7ZM7 19.5V18h2v1.5H7Z" fill="#343333"/></svg><svg fill="none" viewBox="0 0 21 10" id="light-arrow" xmlns="http://www.w3.org/2000/svg"><g stroke="#fff" stroke-width="1.5" stroke-linecap="round"><path d="M20 5H1"/><path d="M4.5 9 1 5l3.5-4" stroke-linejoin="round"/></g></svg><svg fill="none" viewBox="0 0 24 24" id="list" xmlns="http://www.w3.org/2000/svg"><path d="M5.758 22h11.719a1.76 1.76 0 0 0 1.757-1.758V7.86h-4.101a1.76 1.76 0 0 1-1.758-1.757V2H5.758A1.76 1.76 0 0 0 4 3.758v16.484C4 21.212 4.789 22 5.758 22Zm2.344-11.758h7.03a.586.586 0 1 1 0 1.172h-7.03a.586.586 0 1 1 0-1.172Zm0 2.344h7.03a.586.586 0 1 1 0 1.172h-7.03a.586.586 0 1 1 0-1.172Zm0 2.344h7.03a.586.586 0 1 1 0 1.172h-7.03a.586.586 0 1 1 0-1.172Zm0 2.343h4.687a.586.586 0 1 1 0 1.172H8.102a.586.586 0 1 1 0-1.172Z" fill="#343333"/><path d="M15.133 6.687h3.758l-4.344-4.344v3.758c0 .324.262.586.586.586Z" fill="#343333"/></svg><svg fill="none" viewBox="0 0 100 58" id="logo" xmlns="http://www.w3.org/2000/svg"><path fill="#FFD953" d="M0 0h100v58H0z"/><path d="M20.4 28.04v7.56h12.4V40h-17V12h16.8v4.4H20.4v7.28h11.2v4.36H20.4Zm29.617 12.48c-4.214 0-7.707-1.387-10.48-4.16-2.774-2.827-4.16-6.28-4.16-10.36 0-4.107 1.386-7.547 4.16-10.32 2.746-2.8 6.24-4.2 10.48-4.2 2.533 0 4.866.6 7 1.8 2.16 1.2 3.84 2.827 5.04 4.88l-4 2.32c-.747-1.387-1.84-2.48-3.28-3.28-1.414-.827-3-1.24-4.76-1.24-2.96 0-5.387.947-7.28 2.84-1.84 1.867-2.76 4.267-2.76 7.2s.92 5.333 2.76 7.2c1.893 1.893 4.32 2.84 7.28 2.84 1.76 0 3.36-.4 4.8-1.2 1.44-.827 2.52-1.933 3.24-3.32l4 2.28c-1.147 2.027-2.814 3.667-5 4.92-2.107 1.2-4.454 1.8-7.04 1.8Zm25.261-14.88L86.998 40h-5.48l-11.04-13.32V40h-4.6V12h4.6v12.56L81.118 12h5.48l-11.32 13.64Z" fill="#343333"/></svg><svg fill="none" viewBox="0 0 22 22" id="loupe" xmlns="http://www.w3.org/2000/svg"><path d="m21.748 20.533-6.207-6.207c2.828-3.441 2.636-8.549-.578-11.762-3.418-3.419-8.98-3.419-12.4 0-3.418 3.418-3.418 8.98 0 12.4 3.214 3.212 8.32 3.406 11.763.577l6.207 6.207a.86.86 0 1 0 1.215-1.215Zm-8-6.785a7.057 7.057 0 0 1-9.968 0 7.057 7.057 0 0 1 0-9.969 7.057 7.057 0 0 1 9.968 0 7.057 7.057 0 0 1 0 9.969Z" fill="#343333"/><path d="M12.972 7.904H9.623V4.555a.86.86 0 1 0-1.719 0v3.35H4.555a.86.86 0 1 0 0 1.718h3.35v3.35a.86.86 0 1 0 1.718 0v-3.35h3.35a.86.86 0 1 0 0-1.719Z" fill="#343333"/></svg><svg fill="none" viewBox="0 0 39 48" id="lukoil-logo" xmlns="http://www.w3.org/2000/svg"><g clip-path="url(#ata)"><path d="M.774.624h37.258V37.67H.774V.624Z" fill="#F63D37"/><path d="m33.929 7.7-4.171 6.69c-.455.75-.387 1.345-.174 1.91l6.329 16.062H9.706c-2.351 0-4.18-1.872-4.18-4.11l-.02-21.378c.068-2.765 4.123-2.803 4.2-.01V26.91c-.01.634.552 1.344 1.297 1.334h19.19L25.23 16.637c-.126-.442-.223-.893-.223-1.335 0-.49.223-1.276.542-1.91l4.568-7.46c.339-.661 1.016-1.113 1.83-1.151 1.131-.048 2.109.73 2.157 1.93 0 .24-.058.758-.174.988Z" fill="#fff"/><path d="M19.471 21.206V6.864c0-2.794 4.113-2.822 4.161 0V21.36c0 3.322-2.497 5.51-5.555 5.51s-5.564-2.246-5.564-5.51V6.864c0-2.794 4.161-2.794 4.161 0v14.342c0 1.92 2.797 2.045 2.797 0Z" fill="#fff"/><path d="M6.368 41.145v5.876H4.713v-4.464h-1.18v2.323c0 .845-.088 2.217-2.15 2.217-.25 0-.435-.01-.696-.076v-1.402c.126.029.242.058.368.058.726 0 .813-.461.813-1.287v-3.245h4.5ZM8.932 41.145l1.161 2.468.949-2.468h1.8l-2.662 5.876H8.4l.803-1.613-2.226-4.263h1.955ZM13.394 41.145h1.664v2.468l1.78-2.468h1.946l-2.245 2.852 2.303 3.024H16.77l-1.713-2.525v2.525h-1.664v-5.876ZM27.87 41.146v3.532l2.294-3.532h1.626v5.875h-1.606v-3.523L27.89 47.02h-1.626v-5.875h1.607Zm2.933-1.258c-.32.691-1.074.94-1.78.94-.697 0-1.452-.249-1.771-.94l.948-.346c.155.404.523.49.823.49.31 0 .677-.086.832-.49l.948.346ZM38.1 41.145v5.876h-1.655v-4.464h-1.19v2.323c0 .845-.087 2.217-2.149 2.217-.242 0-.425-.01-.696-.076v-1.402c.126.029.251.058.367.058.726 0 .823-.461.823-1.287v-3.245h4.5Z" fill="#2C2E35"/><path fill-rule="evenodd" clip-rule="evenodd" d="M18.91 44.093c0-1.613 1.045-3.197 3.27-3.197 2.226 0 3.262 1.584 3.262 3.197 0 1.603-1.036 3.187-3.261 3.187-2.226 0-3.271-1.584-3.271-3.187Zm4.78 0c0-1.171-.726-1.747-1.51-1.747-.793 0-1.509.576-1.509 1.747 0 1.161.716 1.737 1.51 1.737.784 0 1.51-.576 1.51-1.737Z" fill="#2C2E35"/></g><defs><clipPath id="ata"><path fill="#fff" d="M0 0h38.71v48H0z"/></clipPath></defs></svg><svg fill="none" viewBox="0 0 24 24" id="mail" xmlns="http://www.w3.org/2000/svg"><path d="M13.671 14.743a3.004 3.004 0 0 1-3.342 0L2.133 9.28A2.984 2.984 0 0 1 2 9.185v8.953a1.84 1.84 0 0 0 1.841 1.841H20.16A1.84 1.84 0 0 0 22 18.14V9.184a2.913 2.913 0 0 1-.134.095l-8.195 5.463Z" fill="#343333"/><path d="m2.783 8.304 8.196 5.464a1.84 1.84 0 0 0 2.042 0l8.196-5.464c.49-.326.783-.873.783-1.463C22 5.826 21.174 5 20.16 5H3.84C2.827 5 2 5.826 2 6.841a1.755 1.755 0 0 0 .783 1.463Z" fill="#343333"/></svg><svg fill="none" viewBox="0 0 56 56" id="map-marker" xmlns="http://www.w3.org/2000/svg"><rect width="56" height="56" rx="28" fill="#FFD953"/><path d="M28 27.5a2.5 2.5 0 1 1 0-5 2.5 2.5 0 0 1 0 5Zm0-9.5a7 7 0 0 0-7 7c0 5.25 7 13 7 13s7-7.75 7-13a7 7 0 0 0-7-7Z" fill="#343333"/></svg><svg fill="none" viewBox="0 0 24 24" id="phone" xmlns="http://www.w3.org/2000/svg"><path d="M3.01 16.414A5.274 5.274 0 0 0 8.25 21c7.443 0 13.5-6.056 13.5-13.5a5.274 5.274 0 0 0-4.587-5.239 1.5 1.5 0 0 0-1.558.893l-1.98 4.42v.011A1.5 1.5 0 0 0 13.745 9c.016.025.034.049.053.072l1.951 2.314c-.702 1.427-2.194 2.906-3.64 3.61l-2.282-1.941a1.5 1.5 0 0 0-1.492-.184l-.012.006-4.417 1.979a1.5 1.5 0 0 0-.895 1.558Z" fill="#343333"/></svg><svg fill="none" viewBox="0 0 24 24" id="pocket" xmlns="http://www.w3.org/2000/svg"><path d="M14.356 2.595a.25.25 0 0 1 .361-.032l.921.812L12.739 7h1.921l2.106-2.632 1.652 1.457a.25.25 0 0 1 .026.348l-.69.827h1.944a1.75 1.75 0 0 0-.288-2.3l-3.7-3.263a1.75 1.75 0 0 0-2.531.23L8.976 7h1.91l3.47-4.405ZM5.25 6.5a.75.75 0 0 0 0 1.5h13a3.25 3.25 0 0 1 3.25 3.25v6.5A3.25 3.25 0 0 1 18.25 21h-12A3.25 3.25 0 0 1 3 17.75V7.25A2.25 2.25 0 0 1 5.25 5h4.32L8.378 6.5H5.25Zm10.25 8.25c0 .414.336.75.75.75h2a.75.75 0 1 0 0-1.5h-2a.75.75 0 0 0-.75.75Z" fill="#343333"/></svg><svg fill="none" viewBox="0 0 24 24" id="quality" xmlns="http://www.w3.org/2000/svg"><path fill-rule="evenodd" clip-rule="evenodd" d="m13.421 1.366 1.43 1.07c.39.292.802.442 1.289.469l1.782.1A2.343 2.343 0 0 1 20.1 4.83l.407 1.738c.111.476.33.855.686 1.189l1.302 1.222c.78.731.976 1.845.494 2.8l-.806 1.592c-.22.436-.296.867-.238 1.352l.212 1.772a2.343 2.343 0 0 1-1.422 2.462l-1.64.703a2.276 2.276 0 0 0-1.052.882l-.977 1.494a2.343 2.343 0 0 1-2.671.972l-1.709-.516a2.276 2.276 0 0 0-1.372 0l-1.709.516a2.343 2.343 0 0 1-2.671-.972l-.977-1.494a2.276 2.276 0 0 0-1.052-.882l-1.64-.703a2.343 2.343 0 0 1-1.422-2.462l.212-1.772a2.276 2.276 0 0 0-.238-1.352L1.01 11.78a2.343 2.343 0 0 1 .494-2.8l1.302-1.221c.356-.334.574-.713.686-1.189L3.9 4.831a2.343 2.343 0 0 1 2.178-1.827l1.782-.1a2.276 2.276 0 0 0 1.29-.469l1.429-1.07a2.343 2.343 0 0 1 2.842 0Zm-2.333 11.246-1.55-1.55a1.03 1.03 0 0 0-1.456 1.455l2.28 2.281a1.03 1.03 0 0 0 1.457 0c1.374-1.375 2.734-2.765 4.102-4.146a1.028 1.028 0 0 0-1.458-1.448l-3.375 3.408ZM12 4.334a7.642 7.642 0 0 0-5.42 2.245A7.642 7.642 0 0 0 4.333 12c0 2.118.858 4.034 2.245 5.422A7.642 7.642 0 0 0 12 19.666a7.642 7.642 0 0 0 5.422-2.245A7.642 7.642 0 0 0 19.666 12a7.642 7.642 0 0 0-2.245-5.42A7.642 7.642 0 0 0 12 4.333Zm4.89 2.775A6.894 6.894 0 0 0 12 5.084c-1.91 0-3.639.774-4.89 2.025A6.895 6.895 0 0 0 5.083 12c0 1.91.774 3.64 2.025 4.891A6.894 6.894 0 0 0 12 18.916c1.91 0 3.64-.774 4.891-2.026A6.895 6.895 0 0 0 18.916 12c0-1.91-.774-3.639-2.026-4.89Z" fill="#343333"/></svg><svg fill="none" viewBox="0 0 31 23" id="quotes" xmlns="http://www.w3.org/2000/svg"><path d="M23.333 23C19.075 23 16 19.484 16 14.277 16.027 6.713 21.713 1.365 29.917.34c.76-.096 1.054.96.354 1.27-3.147 1.4-4.738 3.176-4.943 4.934-.153 1.313.56 2.464 1.457 2.68 2.324.558 3.882 3.453 3.882 6.444A7.333 7.333 0 0 1 23.333 23Zm-16 0C3.075 23 0 19.484 0 14.277.027 6.713 5.713 1.365 13.917.34c.76-.096 1.054.96.354 1.27-3.147 1.4-4.738 3.176-4.943 4.934-.153 1.313.56 2.464 1.457 2.68 2.324.558 3.882 3.453 3.882 6.444A7.333 7.333 0 0 1 7.333 23Z" fill="#343333"/></svg><svg fill="none" viewBox="0 0 22 22" id="rate" xmlns="http://www.w3.org/2000/svg"><g fill="#343333"><path d="M21.355 20.711h-.687V7.992a.644.644 0 0 0-.645-.644h-2.578a.645.645 0 0 0-.644.644v12.719h-1.29v-8.422a.645.645 0 0 0-.644-.644H12.29a.645.645 0 0 0-.644.644v8.422h-1.29v-6.059a.645.645 0 0 0-.644-.644H7.133a.645.645 0 0 0-.645.644v6.059H5.2v-4.512a.644.644 0 0 0-.644-.644H1.977a.644.644 0 0 0-.645.644v4.512H.645a.645.645 0 0 0 0 1.289h20.71a.645.645 0 1 0 0-1.289Z"/><path d="M.645 13.849c4.022 0 8.384-1.445 12.283-4.068 3.053-2.054 5.598-4.68 7.179-7.367l.626 2.336c.077.288.45.537.79.456a.638.638 0 0 0 .455-.79L20.922.479a.644.644 0 0 0-.789-.456l-3.939 1.056a.644.644 0 1 0 .334 1.245l2.537-.68c-1.475 2.563-3.912 5.087-6.857 7.069C8.52 11.193 4.414 12.56.645 12.56a.645.645 0 0 0 0 1.289Z"/></g></svg><svg fill="none" viewBox="0 0 32 32" id="request-dev" xmlns="http://www.w3.org/2000/svg"><path d="M13.81 2.19 2.19 13.81a3.097 3.097 0 0 0 0 4.38l11.62 11.62a3.097 3.097 0 0 0 4.38 0l11.62-11.62a3.097 3.097 0 0 0 0-4.38L18.19 2.19a3.097 3.097 0 0 0-4.38 0Z" fill="#343333"/><path d="M16.035 25.163a9.163 9.163 0 1 0 0-18.327 9.163 9.163 0 0 0 0 18.327Z" fill="#fff"/><path d="M18.747 10.274h-5.342a3.097 3.097 0 0 0-3.097 3.097v5.341a3.097 3.097 0 0 0 3.097 3.097h5.342a3.097 3.097 0 0 0 3.096-3.097v-5.341a3.097 3.097 0 0 0-3.096-3.097Z" fill="#343333"/><path d="M16.02 19.978a3.993 3.993 0 1 0 0-7.986 3.993 3.993 0 0 0 0 7.986Z" fill="#fff"/><path d="m15.42 14.9-.371.37a1.032 1.032 0 0 0 0 1.46l.37.37a1.032 1.032 0 0 0 1.46 0l.37-.37a1.032 1.032 0 0 0 0-1.46l-.37-.37a1.032 1.032 0 0 0-1.46 0Z" fill="#343333"/></svg><svg fill="none" viewBox="0 0 21 24" id="shield" xmlns="http://www.w3.org/2000/svg"><path d="M10.219 7.428A4.578 4.578 0 0 0 5.646 12a4.578 4.578 0 0 0 4.573 4.573A4.578 4.578 0 0 0 14.79 12a4.578 4.578 0 0 0-4.572-4.572Zm2.715 3.711-3.276 3.276a.702.702 0 0 1-.996 0L7.41 13.163a.704.704 0 1 1 .996-.995l.754.754 2.778-2.778a.704.704 0 1 1 .995.995Z" fill="#343333"/><path d="M20.413 6.512v-.019c-.011-.248-.018-.497-.022-.746a2.544 2.544 0 0 0-2.395-2.491c-2.76-.155-4.894-1.054-6.718-2.832l-.015-.015a1.536 1.536 0 0 0-2.088 0L9.16.424C7.336 2.202 5.2 3.1 2.442 3.256A2.544 2.544 0 0 0 .047 5.748c-.004.248-.01.497-.022.745l-.001.044c-.054 2.813-.12 6.315 1.051 9.494.644 1.748 1.62 3.267 2.9 4.516 1.457 1.422 3.366 2.552 5.674 3.356a1.748 1.748 0 0 0 .908.064c.079-.016.157-.038.233-.064 2.305-.806 4.212-1.936 5.668-3.358 1.28-1.25 2.255-2.77 2.9-4.518 1.175-3.188 1.109-6.696 1.055-9.515ZM10.22 17.982A5.988 5.988 0 0 1 4.237 12a5.988 5.988 0 0 1 5.982-5.98 5.988 5.988 0 0 1 5.98 5.98 5.988 5.988 0 0 1-5.98 5.982Z" fill="#343333"/></svg><svg fill="none" viewBox="0 0 24 24" id="tel" xmlns="http://www.w3.org/2000/svg"><path d="M3.01 16.414A5.275 5.275 0 0 0 8.25 21c7.443 0 13.5-6.056 13.5-13.5a5.274 5.274 0 0 0-4.587-5.239 1.5 1.5 0 0 0-1.558.893l-1.98 4.42v.011A1.5 1.5 0 0 0 13.745 9c.016.025.034.049.053.072l1.951 2.314c-.702 1.427-2.194 2.906-3.64 3.61l-2.282-1.941a1.5 1.5 0 0 0-1.492-.184l-.012.006-4.417 1.979a1.5 1.5 0 0 0-.895 1.558Z" fill="#343333"/></svg><svg fill="none" viewBox="0 0 24 22" id="time" xmlns="http://www.w3.org/2000/svg"><g fill="#343333"><path d="M17.25.563H13.5a.562.562 0 0 0-.563.562V2.25c0 .31.252.563.563.563h3.75c.31 0 .563-.252.563-.563V1.125a.562.562 0 0 0-.563-.563ZM6.375 8.813h-3.75a.563.563 0 1 0 0 1.124h3.75a.563.563 0 1 0 0-1.124Zm-.188 5.062a.562.562 0 0 0-.562-.563h-3.75a.563.563 0 0 0 0 1.126h3.75a.563.563 0 0 0 .563-.563ZM6 15.563H3.375a.563.563 0 0 0 0 1.124H6a.563.563 0 0 0 0-1.125Zm.188-3.938a.562.562 0 0 0-.563-.563H.75a.563.563 0 0 0 0 1.126h4.875a.563.563 0 0 0 .563-.563Zm9.187 1.125V6.375A6.382 6.382 0 0 0 9 12.75a6.382 6.382 0 0 0 6.375 6.375 6.382 6.382 0 0 0 6.375-6.375h-6.375Z"/><path d="m21.545 7 .603-.602a.56.56 0 0 0-.397-.964.563.563 0 0 0-.399.168l-.628.628A8.402 8.402 0 0 0 16.5 4.387V3.376h-2.25v1.013a8.402 8.402 0 0 0-4.225 1.842l-.627-.628a.563.563 0 1 0-.796.795l.603.604a8.406 8.406 0 0 0-2.268 5.749c0 4.652 3.786 8.438 8.438 8.438 4.652 0 8.438-3.786 8.438-8.438A8.406 8.406 0 0 0 21.544 7Zm-6.17 12.688a6.938 6.938 0 1 1 0-13.876 6.938 6.938 0 0 1 0 13.875Z"/></g></svg></svg>