<?xml version="1.0" encoding="utf-8"?><svg viewBox="0 0 100 58" xmlns="http://www.w3.org/2000/svg" xmlns:xlink="http://www.w3.org/1999/xlink"><style>:root>svg{display:none}:root>svg:target{display:block}</style><svg fill="none" viewBox="0 0 32 32" id="arrow-top" xmlns="http://www.w3.org/2000/svg"><path d="M10.667 22 22 10.667m0 0V20m0-9.333h-9.333" stroke="#343333" stroke-width="1.5" stroke-linecap="round" stroke-linejoin="round"/></svg><svg fill="none" viewBox="0 0 44 44" id="burger-btn" xmlns="http://www.w3.org/2000/svg"><path d="M6.875 22h30.25M6.875 11h30.25M6.875 33h30.25" stroke="#fff" stroke-width="2" stroke-linecap="round" stroke-linejoin="round"/></svg><svg fill="none" viewBox="0 0 24 24" id="care" xmlns="http://www.w3.org/2000/svg"><path d="M18.9 1.267a3.085 3.085 0 0 0-2.132-.832c-.867 0-1.742.342-2.395.996l-.28.28-.28-.281a3.401 3.401 0 0 0-2.395-.995c-.77 0-1.535.27-2.132.832a3.183 3.183 0 0 0-.07 4.57l4.877 4.877 4.877-4.877a3.183 3.183 0 0 0-.07-4.57Zm4.787 11.93c-.75-.507-1.633-.363-2.415.088-.782.451-5.273 4.291-5.273 4.291h-4.42c-.206 0-.429-.23-.429-.435 0-.24.21-.428.429-.428h2.704c.947 0 2.007-.617 2.007-1.714 0-1.165-1.06-1.713-2.007-1.713-1.642 0-1.962.007-1.962.007-.657 0-1.325-.04-1.839-.315a5.073 5.073 0 0 0-2.318-.55c-1.415 0-2.682.565-3.55 1.455L0 18.425l5.14 5.14 1.713-1.713h8.676c.863 0 1.696-.317 2.342-.89l5.874-6.59c.359-.319.338-.905-.058-1.174Z" fill="#343333"/></svg><svg fill="none" viewBox="0 0 22 22" id="close-btn" xmlns="http://www.w3.org/2000/svg"><path d="m4.583 4.583 12.834 12.834M17.417 4.583 4.583 17.417" stroke="#343333" stroke-width="1.5" stroke-linecap="round" stroke-linejoin="round"/></svg><svg fill="none" viewBox="0 0 100 58" id="logo" xmlns="http://www.w3.org/2000/svg"><path fill="#FFD953" d="M0 0h100v58H0z"/><path d="M20.4 28.04v7.56h12.4V40h-17V12h16.8v4.4H20.4v7.28h11.2v4.36H20.4Zm29.617 12.48c-4.214 0-7.707-1.387-10.48-4.16-2.774-2.827-4.16-6.28-4.16-10.36 0-4.107 1.386-7.547 4.16-10.32 2.746-2.8 6.24-4.2 10.48-4.2 2.533 0 4.866.6 7 1.8 2.16 1.2 3.84 2.827 5.04 4.88l-4 2.32c-.747-1.387-1.84-2.48-3.28-3.28-1.414-.827-3-1.24-4.76-1.24-2.96 0-5.387.947-7.28 2.84-1.84 1.867-2.76 4.267-2.76 7.2s.92 5.333 2.76 7.2c1.893 1.893 4.32 2.84 7.28 2.84 1.76 0 3.36-.4 4.8-1.2 1.44-.827 2.52-1.933 3.24-3.32l4 2.28c-1.147 2.027-2.814 3.667-5 4.92-2.107 1.2-4.454 1.8-7.04 1.8Zm25.261-14.88L86.998 40h-5.48l-11.04-13.32V40h-4.6V12h4.6v12.56L81.118 12h5.48l-11.32 13.64Z" fill="#343333"/></svg><svg fill="none" viewBox="0 0 22 22" id="loupe" xmlns="http://www.w3.org/2000/svg"><path d="m21.748 20.533-6.207-6.207c2.828-3.441 2.636-8.549-.578-11.762-3.418-3.419-8.98-3.419-12.4 0-3.418 3.418-3.418 8.98 0 12.4 3.214 3.212 8.32 3.406 11.763.577l6.207 6.207a.86.86 0 1 0 1.215-1.215Zm-8-6.785a7.057 7.057 0 0 1-9.968 0 7.057 7.057 0 0 1 0-9.969 7.057 7.057 0 0 1 9.968 0 7.057 7.057 0 0 1 0 9.969Z" fill="#343333"/><path d="M12.972 7.904H9.623V4.555a.86.86 0 1 0-1.719 0v3.35H4.555a.86.86 0 1 0 0 1.718h3.35v3.35a.86.86 0 1 0 1.718 0v-3.35h3.35a.86.86 0 1 0 0-1.719Z" fill="#343333"/></svg><svg fill="none" viewBox="0 0 24 24" id="phone" xmlns="http://www.w3.org/2000/svg"><path d="M3.01 16.414A5.274 5.274 0 0 0 8.25 21c7.443 0 13.5-6.056 13.5-13.5a5.274 5.274 0 0 0-4.587-5.239 1.5 1.5 0 0 0-1.558.893l-1.98 4.42v.011A1.5 1.5 0 0 0 13.745 9c.016.025.034.049.053.072l1.951 2.314c-.702 1.427-2.194 2.906-3.64 3.61l-2.282-1.941a1.5 1.5 0 0 0-1.492-.184l-.012.006-4.417 1.979a1.5 1.5 0 0 0-.895 1.558Z" fill="#343333"/></svg><svg fill="none" viewBox="0 0 24 24" id="quality" xmlns="http://www.w3.org/2000/svg"><path fill-rule="evenodd" clip-rule="evenodd" d="m13.421 1.366 1.43 1.07c.39.292.802.442 1.289.469l1.782.1A2.343 2.343 0 0 1 20.1 4.83l.407 1.738c.111.476.33.855.686 1.189l1.302 1.222c.78.731.976 1.845.494 2.8l-.806 1.592c-.22.436-.296.867-.238 1.352l.212 1.772a2.343 2.343 0 0 1-1.422 2.462l-1.64.703a2.276 2.276 0 0 0-1.052.882l-.977 1.494a2.343 2.343 0 0 1-2.671.972l-1.709-.516a2.276 2.276 0 0 0-1.372 0l-1.709.516a2.343 2.343 0 0 1-2.671-.972l-.977-1.494a2.276 2.276 0 0 0-1.052-.882l-1.64-.703a2.343 2.343 0 0 1-1.422-2.462l.212-1.772a2.276 2.276 0 0 0-.238-1.352L1.01 11.78a2.343 2.343 0 0 1 .494-2.8l1.302-1.221c.356-.334.574-.713.686-1.189L3.9 4.831a2.343 2.343 0 0 1 2.178-1.827l1.782-.1a2.276 2.276 0 0 0 1.29-.469l1.429-1.07a2.343 2.343 0 0 1 2.842 0Zm-2.333 11.246-1.55-1.55a1.03 1.03 0 0 0-1.456 1.455l2.28 2.281a1.03 1.03 0 0 0 1.457 0c1.374-1.375 2.734-2.765 4.102-4.146a1.028 1.028 0 0 0-1.458-1.448l-3.375 3.408ZM12 4.334a7.642 7.642 0 0 0-5.42 2.245A7.642 7.642 0 0 0 4.333 12c0 2.118.858 4.034 2.245 5.422A7.642 7.642 0 0 0 12 19.666a7.642 7.642 0 0 0 5.422-2.245A7.642 7.642 0 0 0 19.666 12a7.642 7.642 0 0 0-2.245-5.42A7.642 7.642 0 0 0 12 4.333Zm4.89 2.775A6.894 6.894 0 0 0 12 5.084c-1.91 0-3.639.774-4.89 2.025A6.895 6.895 0 0 0 5.083 12c0 1.91.774 3.64 2.025 4.891A6.894 6.894 0 0 0 12 18.916c1.91 0 3.64-.774 4.891-2.026A6.895 6.895 0 0 0 18.916 12c0-1.91-.774-3.639-2.026-4.89Z" fill="#343333"/></svg><svg fill="none" viewBox="0 0 32 32" id="request-dev" xmlns="http://www.w3.org/2000/svg"><path d="M13.81 2.19 2.19 13.81a3.097 3.097 0 0 0 0 4.38l11.62 11.62a3.097 3.097 0 0 0 4.38 0l11.62-11.62a3.097 3.097 0 0 0 0-4.38L18.19 2.19a3.097 3.097 0 0 0-4.38 0Z" fill="#343333"/><path d="M16.035 25.163a9.163 9.163 0 1 0 0-18.327 9.163 9.163 0 0 0 0 18.327Z" fill="#fff"/><path d="M18.747 10.274h-5.342a3.097 3.097 0 0 0-3.097 3.097v5.341a3.097 3.097 0 0 0 3.097 3.097h5.342a3.097 3.097 0 0 0 3.096-3.097v-5.341a3.097 3.097 0 0 0-3.096-3.097Z" fill="#343333"/><path d="M16.02 19.978a3.993 3.993 0 1 0 0-7.986 3.993 3.993 0 0 0 0 7.986Z" fill="#fff"/><path d="m15.42 14.9-.371.37a1.032 1.032 0 0 0 0 1.46l.37.37a1.032 1.032 0 0 0 1.46 0l.37-.37a1.032 1.032 0 0 0 0-1.46l-.37-.37a1.032 1.032 0 0 0-1.46 0Z" fill="#343333"/></svg><svg fill="none" viewBox="0 0 21 24" id="shield" xmlns="http://www.w3.org/2000/svg"><path d="M10.219 7.428A4.578 4.578 0 0 0 5.646 12a4.578 4.578 0 0 0 4.573 4.573A4.578 4.578 0 0 0 14.79 12a4.578 4.578 0 0 0-4.572-4.572Zm2.715 3.711-3.276 3.276a.702.702 0 0 1-.996 0L7.41 13.163a.704.704 0 1 1 .996-.995l.754.754 2.778-2.778a.704.704 0 1 1 .995.995Z" fill="#343333"/><path d="M20.413 6.512v-.019c-.011-.248-.018-.497-.022-.746a2.544 2.544 0 0 0-2.395-2.491c-2.76-.155-4.894-1.054-6.718-2.832l-.015-.015a1.536 1.536 0 0 0-2.088 0L9.16.424C7.336 2.202 5.2 3.1 2.442 3.256A2.544 2.544 0 0 0 .047 5.748c-.004.248-.01.497-.022.745l-.001.044c-.054 2.813-.12 6.315 1.051 9.494.644 1.748 1.62 3.267 2.9 4.516 1.457 1.422 3.366 2.552 5.674 3.356a1.748 1.748 0 0 0 .908.064c.079-.016.157-.038.233-.064 2.305-.806 4.212-1.936 5.668-3.358 1.28-1.25 2.255-2.77 2.9-4.518 1.175-3.188 1.109-6.696 1.055-9.515ZM10.22 17.982A5.988 5.988 0 0 1 4.237 12a5.988 5.988 0 0 1 5.982-5.98 5.988 5.988 0 0 1 5.98 5.98 5.988 5.988 0 0 1-5.98 5.982Z" fill="#343333"/></svg></svg>