<?xml version="1.0" encoding="utf-8"?><svg viewBox="0 0 100 58" xmlns="http://www.w3.org/2000/svg" xmlns:xlink="http://www.w3.org/1999/xlink"><style>:root>svg{display:none}:root>svg:target{display:block}</style><svg fill="none" viewBox="0 0 32 32" id="arrow-top" xmlns="http://www.w3.org/2000/svg"><path d="M10.667 22 22 10.667m0 0V20m0-9.333h-9.333" stroke="#343333" stroke-width="1.5" stroke-linecap="round" stroke-linejoin="round"/></svg><svg fill="none" viewBox="0 0 44 44" id="burger-btn" xmlns="http://www.w3.org/2000/svg"><path d="M6.875 22h30.25M6.875 11h30.25M6.875 33h30.25" stroke="#fff" stroke-width="2" stroke-linecap="round" stroke-linejoin="round"/></svg><svg fill="none" viewBox="0 0 22 22" id="close-btn" xmlns="http://www.w3.org/2000/svg"><path d="m4.583 4.583 12.834 12.834M17.417 4.583 4.583 17.417" stroke="#343333" stroke-width="1.5" stroke-linecap="round" stroke-linejoin="round"/></svg><svg fill="none" viewBox="0 0 100 58" id="logo" xmlns="http://www.w3.org/2000/svg"><path fill="#FFD953" d="M0 0h100v58H0z"/><path d="M20.4 28.04v7.56h12.4V40h-17V12h16.8v4.4H20.4v7.28h11.2v4.36H20.4Zm29.617 12.48c-4.214 0-7.707-1.387-10.48-4.16-2.774-2.827-4.16-6.28-4.16-10.36 0-4.107 1.386-7.547 4.16-10.32 2.746-2.8 6.24-4.2 10.48-4.2 2.533 0 4.866.6 7 1.8 2.16 1.2 3.84 2.827 5.04 4.88l-4 2.32c-.747-1.387-1.84-2.48-3.28-3.28-1.414-.827-3-1.24-4.76-1.24-2.96 0-5.387.947-7.28 2.84-1.84 1.867-2.76 4.267-2.76 7.2s.92 5.333 2.76 7.2c1.893 1.893 4.32 2.84 7.28 2.84 1.76 0 3.36-.4 4.8-1.2 1.44-.827 2.52-1.933 3.24-3.32l4 2.28c-1.147 2.027-2.814 3.667-5 4.92-2.107 1.2-4.454 1.8-7.04 1.8Zm25.261-14.88L86.998 40h-5.48l-11.04-13.32V40h-4.6V12h4.6v12.56L81.118 12h5.48l-11.32 13.64Z" fill="#343333"/></svg><svg fill="none" viewBox="0 0 22 22" id="loupe" xmlns="http://www.w3.org/2000/svg"><path d="m21.748 20.533-6.207-6.207c2.828-3.441 2.636-8.549-.578-11.762-3.418-3.419-8.98-3.419-12.4 0-3.418 3.418-3.418 8.98 0 12.4 3.214 3.212 8.32 3.406 11.763.577l6.207 6.207a.86.86 0 1 0 1.215-1.215Zm-8-6.785a7.057 7.057 0 0 1-9.968 0 7.057 7.057 0 0 1 0-9.969 7.057 7.057 0 0 1 9.968 0 7.057 7.057 0 0 1 0 9.969Z" fill="#343333"/><path d="M12.972 7.904H9.623V4.555a.86.86 0 1 0-1.719 0v3.35H4.555a.86.86 0 1 0 0 1.718h3.35v3.35a.86.86 0 1 0 1.718 0v-3.35h3.35a.86.86 0 1 0 0-1.719Z" fill="#343333"/></svg><svg fill="none" viewBox="0 0 24 24" id="phone" xmlns="http://www.w3.org/2000/svg"><path d="M3.01 16.414A5.274 5.274 0 0 0 8.25 21c7.443 0 13.5-6.056 13.5-13.5a5.274 5.274 0 0 0-4.587-5.239 1.5 1.5 0 0 0-1.558.893l-1.98 4.42v.011A1.5 1.5 0 0 0 13.745 9c.016.025.034.049.053.072l1.951 2.314c-.702 1.427-2.194 2.906-3.64 3.61l-2.282-1.941a1.5 1.5 0 0 0-1.492-.184l-.012.006-4.417 1.979a1.5 1.5 0 0 0-.895 1.558Z" fill="#343333"/></svg></svg>