<?xml version="1.0" encoding="utf-8"?><svg viewBox="0 0 100 58" xmlns="http://www.w3.org/2000/svg" xmlns:xlink="http://www.w3.org/1999/xlink"><style>:root>svg{display:none}:root>svg:target{display:block}</style><svg fill="none" viewBox="0 0 32 32" id="arrow-top" xmlns="http://www.w3.org/2000/svg"><path d="M10.667 22 22 10.667m0 0V20m0-9.333h-9.333" stroke="#343333" stroke-width="1.5" stroke-linecap="round" stroke-linejoin="round"/></svg><svg fill="none" viewBox="0 0 44 44" id="burger-btn" xmlns="http://www.w3.org/2000/svg"><path d="M6.875 22h30.25M6.875 11h30.25M6.875 33h30.25" stroke="#fff" stroke-width="2" stroke-linecap="round" stroke-linejoin="round"/></svg><svg fill="none" viewBox="0 0 17 22" id="calc" xmlns="http://www.w3.org/2000/svg"><path d="M14.68 0H1.934A1.936 1.936 0 0 0 0 1.934v18.132C0 21.133.867 22 1.934 22H14.68a1.936 1.936 0 0 0 1.934-1.934V1.934A1.936 1.936 0 0 0 14.68 0ZM2.625 3.796c0-.283.232-.515.516-.515h10.504c.284 0 .516.232.516.515v1.966a.517.517 0 0 1-.515.516H3.14a.517.517 0 0 1-.516-.516V3.796Zm6.285 7.05H7.704a.645.645 0 0 1-.644-.645v-.876c0-.356.288-.645.644-.645H8.91c.356 0 .644.289.644.645v.876a.645.645 0 0 1-.644.644Zm.644 2.63v.876a.645.645 0 0 1-.644.645H7.704a.645.645 0 0 1-.644-.645v-.876c0-.356.288-.644.644-.644H8.91c.356 0 .644.288.644.644Zm-4.607 5.028a.645.645 0 0 1-.645.645H3.097a.645.645 0 0 1-.644-.645v-.876c0-.356.288-.644.644-.644h1.205c.356 0 .645.288.645.644v.876Zm0-4.152a.645.645 0 0 1-.645.645H3.097a.645.645 0 0 1-.644-.645v-.876c0-.356.288-.644.644-.644h1.205c.356 0 .645.288.645.644v.876Zm0-4.151a.645.645 0 0 1-.645.644H3.097a.645.645 0 0 1-.644-.644v-.876c0-.356.288-.645.644-.645h1.205c.356 0 .645.289.645.645v.876Zm9.214 8.303a.645.645 0 0 1-.644.645H7.704a.645.645 0 0 1-.644-.645v-.876c0-.356.288-.644.644-.644h5.813c.356 0 .644.288.644.644v.876Zm0-4.152a.645.645 0 0 1-.644.645H12.31a.645.645 0 0 1-.644-.645v-.876c0-.356.288-.644.644-.644h1.206c.356 0 .644.288.644.644v.876Zm0-4.151a.645.645 0 0 1-.644.644H12.31a.645.645 0 0 1-.644-.644v-.876c0-.356.288-.645.644-.645h1.206c.356 0 .644.289.644.645v.876Z" fill="#343333"/></svg><svg fill="none" viewBox="0 0 24 24" id="care" xmlns="http://www.w3.org/2000/svg"><path d="M18.9 1.267a3.085 3.085 0 0 0-2.132-.832c-.867 0-1.742.342-2.395.996l-.28.28-.28-.281a3.401 3.401 0 0 0-2.395-.995c-.77 0-1.535.27-2.132.832a3.183 3.183 0 0 0-.07 4.57l4.877 4.877 4.877-4.877a3.183 3.183 0 0 0-.07-4.57Zm4.787 11.93c-.75-.507-1.633-.363-2.415.088-.782.451-5.273 4.291-5.273 4.291h-4.42c-.206 0-.429-.23-.429-.435 0-.24.21-.428.429-.428h2.704c.947 0 2.007-.617 2.007-1.714 0-1.165-1.06-1.713-2.007-1.713-1.642 0-1.962.007-1.962.007-.657 0-1.325-.04-1.839-.315a5.073 5.073 0 0 0-2.318-.55c-1.415 0-2.682.565-3.55 1.455L0 18.425l5.14 5.14 1.713-1.713h8.676c.863 0 1.696-.317 2.342-.89l5.874-6.59c.359-.319.338-.905-.058-1.174Z" fill="#343333"/></svg><svg fill="none" viewBox="0 0 22 22" id="close-btn" xmlns="http://www.w3.org/2000/svg"><path d="m4.583 4.583 12.834 12.834M17.417 4.583 4.583 17.417" stroke="#343333" stroke-width="1.5" stroke-linecap="round" stroke-linejoin="round"/></svg><svg fill="none" viewBox="0 0 16 16" id="close-btn-light" xmlns="http://www.w3.org/2000/svg"><g stroke="#fff" stroke-width="1.5" stroke-linecap="round" stroke-linejoin="round"><path d="m1 1 14 14M15 1 1 15"/></g></svg><svg fill="none" viewBox="0 0 20 22" id="file" xmlns="http://www.w3.org/2000/svg"><path d="M7.42 14.373H3.111a.397.397 0 0 1-.396-.397c0-.218.178-.396.396-.396h4.57c.253-.645.59-1.19 1.006-1.735H3.112a.398.398 0 0 1-.396-.397c0-.218.178-.396.396-.396h6.33a6.824 6.824 0 0 1 4.485-1.705c.163 0 .297.015.495.03V5.303h-2.974a2.089 2.089 0 0 1-2.081-2.087V0H1.764C.783 0 0 .803 0 1.79v15.125c0 .986.783 1.77 1.764 1.77h5.972a6.618 6.618 0 0 1-.53-2.617 6.615 6.615 0 0 1 .213-1.696ZM3.111 8.573h5.021a.398.398 0 0 1 0 .793h-5.02a.398.398 0 0 1-.397-.396c0-.219.178-.397.396-.397Z" fill="#343333" fill-opacity=".5"/><path d="M13.921 10.155A5.929 5.929 0 0 0 8 16.078 5.929 5.929 0 0 0 13.922 22a5.929 5.929 0 0 0 5.922-5.922 5.929 5.929 0 0 0-5.923-5.923Zm2.018 6.349h-1.616v1.615a.398.398 0 0 1-.396.397.398.398 0 0 1-.397-.397v-1.615h-1.64a.398.398 0 0 1-.397-.397c0-.218.178-.396.397-.396h1.64v-1.64a.398.398 0 0 1 .793 0v1.64h1.616c.218 0 .396.178.396.396a.398.398 0 0 1-.396.397ZM11.449 4.51h2.428L10.16.6v2.616c0 .71.575 1.294 1.288 1.294Z" fill="#343333" fill-opacity=".5"/></svg><svg fill="none" viewBox="0 0 16 20" id="file-generic" xmlns="http://www.w3.org/2000/svg"><path d="M1.758 20h11.719a1.76 1.76 0 0 0 1.757-1.758V5.86h-4.101a1.76 1.76 0 0 1-1.758-1.757V0H1.758A1.76 1.76 0 0 0 0 1.758v16.484C0 19.212.789 20 1.758 20ZM4.102 8.242h7.03a.586.586 0 1 1 0 1.172h-7.03a.586.586 0 1 1 0-1.172Zm0 2.344h7.03a.586.586 0 1 1 0 1.172h-7.03a.586.586 0 1 1 0-1.172Zm0 2.344h7.03a.586.586 0 1 1 0 1.172h-7.03a.586.586 0 1 1 0-1.172Zm0 2.343h4.687a.586.586 0 1 1 0 1.172H4.102a.586.586 0 1 1 0-1.172Z" fill="#343333" fill-opacity=".5"/><path d="M11.133 4.688h3.758L10.547.343v3.759c0 .323.262.585.586.585Z" fill="#343333" fill-opacity=".5"/></svg><svg fill="none" viewBox="0 0 24 24" id="hand-heart" xmlns="http://www.w3.org/2000/svg"><path d="M18.9 1.267a3.085 3.085 0 0 0-2.132-.832c-.867 0-1.742.342-2.395.996l-.28.28-.28-.281a3.401 3.401 0 0 0-2.395-.995c-.77 0-1.535.27-2.132.832a3.183 3.183 0 0 0-.07 4.57l4.877 4.877 4.877-4.877a3.183 3.183 0 0 0-.07-4.57Zm4.787 11.93c-.75-.507-1.633-.363-2.415.088-.782.451-5.273 4.291-5.273 4.291h-4.42c-.206 0-.429-.23-.429-.435 0-.24.21-.428.429-.428h2.704c.947 0 2.007-.617 2.007-1.714 0-1.165-1.06-1.713-2.007-1.713-1.642 0-1.962.007-1.962.007-.657 0-1.325-.04-1.839-.315a5.073 5.073 0 0 0-2.318-.55c-1.415 0-2.682.565-3.55 1.455L0 18.425l5.14 5.14 1.713-1.713h8.676c.863 0 1.696-.317 2.342-.89l5.874-6.59c.359-.319.338-.905-.058-1.174Z" fill="#343333"/></svg><svg fill="none" viewBox="0 0 21 10" id="light-arrow" xmlns="http://www.w3.org/2000/svg"><g stroke="#fff" stroke-width="1.5" stroke-linecap="round"><path d="M20 5H1"/><path d="M4.5 9 1 5l3.5-4" stroke-linejoin="round"/></g></svg><svg fill="none" viewBox="0 0 100 58" id="logo" xmlns="http://www.w3.org/2000/svg"><path fill="#FFD953" d="M0 0h100v58H0z"/><path d="M20.4 28.04v7.56h12.4V40h-17V12h16.8v4.4H20.4v7.28h11.2v4.36H20.4Zm29.617 12.48c-4.214 0-7.707-1.387-10.48-4.16-2.774-2.827-4.16-6.28-4.16-10.36 0-4.107 1.386-7.547 4.16-10.32 2.746-2.8 6.24-4.2 10.48-4.2 2.533 0 4.866.6 7 1.8 2.16 1.2 3.84 2.827 5.04 4.88l-4 2.32c-.747-1.387-1.84-2.48-3.28-3.28-1.414-.827-3-1.24-4.76-1.24-2.96 0-5.387.947-7.28 2.84-1.84 1.867-2.76 4.267-2.76 7.2s.92 5.333 2.76 7.2c1.893 1.893 4.32 2.84 7.28 2.84 1.76 0 3.36-.4 4.8-1.2 1.44-.827 2.52-1.933 3.24-3.32l4 2.28c-1.147 2.027-2.814 3.667-5 4.92-2.107 1.2-4.454 1.8-7.04 1.8Zm25.261-14.88L86.998 40h-5.48l-11.04-13.32V40h-4.6V12h4.6v12.56L81.118 12h5.48l-11.32 13.64Z" fill="#343333"/></svg><svg fill="none" viewBox="0 0 22 22" id="loupe" xmlns="http://www.w3.org/2000/svg"><path d="m21.748 20.533-6.207-6.207c2.828-3.441 2.636-8.549-.578-11.762-3.418-3.419-8.98-3.419-12.4 0-3.418 3.418-3.418 8.98 0 12.4 3.214 3.212 8.32 3.406 11.763.577l6.207 6.207a.86.86 0 1 0 1.215-1.215Zm-8-6.785a7.057 7.057 0 0 1-9.968 0 7.057 7.057 0 0 1 0-9.969 7.057 7.057 0 0 1 9.968 0 7.057 7.057 0 0 1 0 9.969Z" fill="#343333"/><path d="M12.972 7.904H9.623V4.555a.86.86 0 1 0-1.719 0v3.35H4.555a.86.86 0 1 0 0 1.718h3.35v3.35a.86.86 0 1 0 1.718 0v-3.35h3.35a.86.86 0 1 0 0-1.719Z" fill="#343333"/></svg><svg fill="none" viewBox="0 0 39 48" id="lukoil-logo" xmlns="http://www.w3.org/2000/svg"><g clip-path="url(#ma)"><path d="M.774.624h37.258V37.67H.774V.624Z" fill="#F63D37"/><path d="m33.929 7.7-4.171 6.69c-.455.75-.387 1.345-.174 1.91l6.329 16.062H9.706c-2.351 0-4.18-1.872-4.18-4.11l-.02-21.378c.068-2.765 4.123-2.803 4.2-.01V26.91c-.01.634.552 1.344 1.297 1.334h19.19L25.23 16.637c-.126-.442-.223-.893-.223-1.335 0-.49.223-1.276.542-1.91l4.568-7.46c.339-.661 1.016-1.113 1.83-1.151 1.131-.048 2.109.73 2.157 1.93 0 .24-.058.758-.174.988Z" fill="#fff"/><path d="M19.471 21.206V6.864c0-2.794 4.113-2.822 4.161 0V21.36c0 3.322-2.497 5.51-5.555 5.51s-5.564-2.246-5.564-5.51V6.864c0-2.794 4.161-2.794 4.161 0v14.342c0 1.92 2.797 2.045 2.797 0Z" fill="#fff"/><path d="M6.368 41.145v5.876H4.713v-4.464h-1.18v2.323c0 .845-.088 2.217-2.15 2.217-.25 0-.435-.01-.696-.076v-1.402c.126.029.242.058.368.058.726 0 .813-.461.813-1.287v-3.245h4.5ZM8.932 41.145l1.161 2.468.949-2.468h1.8l-2.662 5.876H8.4l.803-1.613-2.226-4.263h1.955ZM13.394 41.145h1.664v2.468l1.78-2.468h1.946l-2.245 2.852 2.303 3.024H16.77l-1.713-2.525v2.525h-1.664v-5.876ZM27.87 41.146v3.532l2.294-3.532h1.626v5.875h-1.606v-3.523L27.89 47.02h-1.626v-5.875h1.607Zm2.933-1.258c-.32.691-1.074.94-1.78.94-.697 0-1.452-.249-1.771-.94l.948-.346c.155.404.523.49.823.49.31 0 .677-.086.832-.49l.948.346ZM38.1 41.145v5.876h-1.655v-4.464h-1.19v2.323c0 .845-.087 2.217-2.149 2.217-.242 0-.425-.01-.696-.076v-1.402c.126.029.251.058.367.058.726 0 .823-.461.823-1.287v-3.245h4.5Z" fill="#2C2E35"/><path fill-rule="evenodd" clip-rule="evenodd" d="M18.91 44.093c0-1.613 1.045-3.197 3.27-3.197 2.226 0 3.262 1.584 3.262 3.197 0 1.603-1.036 3.187-3.261 3.187-2.226 0-3.271-1.584-3.271-3.187Zm4.78 0c0-1.171-.726-1.747-1.51-1.747-.793 0-1.509.576-1.509 1.747 0 1.161.716 1.737 1.51 1.737.784 0 1.51-.576 1.51-1.737Z" fill="#2C2E35"/></g><defs><clipPath id="ma"><path fill="#fff" d="M0 0h38.71v48H0z"/></clipPath></defs></svg><svg fill="none" viewBox="0 0 24 24" id="phone" xmlns="http://www.w3.org/2000/svg"><path d="M3.01 16.414A5.274 5.274 0 0 0 8.25 21c7.443 0 13.5-6.056 13.5-13.5a5.274 5.274 0 0 0-4.587-5.239 1.5 1.5 0 0 0-1.558.893l-1.98 4.42v.011A1.5 1.5 0 0 0 13.745 9c.016.025.034.049.053.072l1.951 2.314c-.702 1.427-2.194 2.906-3.64 3.61l-2.282-1.941a1.5 1.5 0 0 0-1.492-.184l-.012.006-4.417 1.979a1.5 1.5 0 0 0-.895 1.558Z" fill="#343333"/></svg><svg fill="none" viewBox="0 0 24 24" id="quality" xmlns="http://www.w3.org/2000/svg"><path fill-rule="evenodd" clip-rule="evenodd" d="m13.421 1.366 1.43 1.07c.39.292.802.442 1.289.469l1.782.1A2.343 2.343 0 0 1 20.1 4.83l.407 1.738c.111.476.33.855.686 1.189l1.302 1.222c.78.731.976 1.845.494 2.8l-.806 1.592c-.22.436-.296.867-.238 1.352l.212 1.772a2.343 2.343 0 0 1-1.422 2.462l-1.64.703a2.276 2.276 0 0 0-1.052.882l-.977 1.494a2.343 2.343 0 0 1-2.671.972l-1.709-.516a2.276 2.276 0 0 0-1.372 0l-1.709.516a2.343 2.343 0 0 1-2.671-.972l-.977-1.494a2.276 2.276 0 0 0-1.052-.882l-1.64-.703a2.343 2.343 0 0 1-1.422-2.462l.212-1.772a2.276 2.276 0 0 0-.238-1.352L1.01 11.78a2.343 2.343 0 0 1 .494-2.8l1.302-1.221c.356-.334.574-.713.686-1.189L3.9 4.831a2.343 2.343 0 0 1 2.178-1.827l1.782-.1a2.276 2.276 0 0 0 1.29-.469l1.429-1.07a2.343 2.343 0 0 1 2.842 0Zm-2.333 11.246-1.55-1.55a1.03 1.03 0 0 0-1.456 1.455l2.28 2.281a1.03 1.03 0 0 0 1.457 0c1.374-1.375 2.734-2.765 4.102-4.146a1.028 1.028 0 0 0-1.458-1.448l-3.375 3.408ZM12 4.334a7.642 7.642 0 0 0-5.42 2.245A7.642 7.642 0 0 0 4.333 12c0 2.118.858 4.034 2.245 5.422A7.642 7.642 0 0 0 12 19.666a7.642 7.642 0 0 0 5.422-2.245A7.642 7.642 0 0 0 19.666 12a7.642 7.642 0 0 0-2.245-5.42A7.642 7.642 0 0 0 12 4.333Zm4.89 2.775A6.894 6.894 0 0 0 12 5.084c-1.91 0-3.639.774-4.89 2.025A6.895 6.895 0 0 0 5.083 12c0 1.91.774 3.64 2.025 4.891A6.894 6.894 0 0 0 12 18.916c1.91 0 3.64-.774 4.891-2.026A6.895 6.895 0 0 0 18.916 12c0-1.91-.774-3.639-2.026-4.89Z" fill="#343333"/></svg><svg fill="none" viewBox="0 0 31 23" id="quotes" xmlns="http://www.w3.org/2000/svg"><path d="M23.333 23C19.075 23 16 19.484 16 14.277 16.027 6.713 21.713 1.365 29.917.34c.76-.096 1.054.96.354 1.27-3.147 1.4-4.738 3.176-4.943 4.934-.153 1.313.56 2.464 1.457 2.68 2.324.558 3.882 3.453 3.882 6.444A7.333 7.333 0 0 1 23.333 23Zm-16 0C3.075 23 0 19.484 0 14.277.027 6.713 5.713 1.365 13.917.34c.76-.096 1.054.96.354 1.27-3.147 1.4-4.738 3.176-4.943 4.934-.153 1.313.56 2.464 1.457 2.68 2.324.558 3.882 3.453 3.882 6.444A7.333 7.333 0 0 1 7.333 23Z" fill="#343333"/></svg><svg fill="none" viewBox="0 0 22 22" id="rate" xmlns="http://www.w3.org/2000/svg"><g fill="#343333"><path d="M21.355 20.711h-.687V7.992a.644.644 0 0 0-.645-.644h-2.578a.645.645 0 0 0-.644.644v12.719h-1.29v-8.422a.645.645 0 0 0-.644-.644H12.29a.645.645 0 0 0-.644.644v8.422h-1.29v-6.059a.645.645 0 0 0-.644-.644H7.133a.645.645 0 0 0-.645.644v6.059H5.2v-4.512a.644.644 0 0 0-.644-.644H1.977a.644.644 0 0 0-.645.644v4.512H.645a.645.645 0 0 0 0 1.289h20.71a.645.645 0 1 0 0-1.289Z"/><path d="M.645 13.849c4.022 0 8.384-1.445 12.283-4.068 3.053-2.054 5.598-4.68 7.179-7.367l.626 2.336c.077.288.45.537.79.456a.638.638 0 0 0 .455-.79L20.922.479a.644.644 0 0 0-.789-.456l-3.939 1.056a.644.644 0 1 0 .334 1.245l2.537-.68c-1.475 2.563-3.912 5.087-6.857 7.069C8.52 11.193 4.414 12.56.645 12.56a.645.645 0 0 0 0 1.289Z"/></g></svg><svg fill="none" viewBox="0 0 32 32" id="request-dev" xmlns="http://www.w3.org/2000/svg"><path d="M13.81 2.19 2.19 13.81a3.097 3.097 0 0 0 0 4.38l11.62 11.62a3.097 3.097 0 0 0 4.38 0l11.62-11.62a3.097 3.097 0 0 0 0-4.38L18.19 2.19a3.097 3.097 0 0 0-4.38 0Z" fill="#343333"/><path d="M16.035 25.163a9.163 9.163 0 1 0 0-18.327 9.163 9.163 0 0 0 0 18.327Z" fill="#fff"/><path d="M18.747 10.274h-5.342a3.097 3.097 0 0 0-3.097 3.097v5.341a3.097 3.097 0 0 0 3.097 3.097h5.342a3.097 3.097 0 0 0 3.096-3.097v-5.341a3.097 3.097 0 0 0-3.096-3.097Z" fill="#343333"/><path d="M16.02 19.978a3.993 3.993 0 1 0 0-7.986 3.993 3.993 0 0 0 0 7.986Z" fill="#fff"/><path d="m15.42 14.9-.371.37a1.032 1.032 0 0 0 0 1.46l.37.37a1.032 1.032 0 0 0 1.46 0l.37-.37a1.032 1.032 0 0 0 0-1.46l-.37-.37a1.032 1.032 0 0 0-1.46 0Z" fill="#343333"/></svg><svg fill="none" viewBox="0 0 21 24" id="shield" xmlns="http://www.w3.org/2000/svg"><path d="M10.219 7.428A4.578 4.578 0 0 0 5.646 12a4.578 4.578 0 0 0 4.573 4.573A4.578 4.578 0 0 0 14.79 12a4.578 4.578 0 0 0-4.572-4.572Zm2.715 3.711-3.276 3.276a.702.702 0 0 1-.996 0L7.41 13.163a.704.704 0 1 1 .996-.995l.754.754 2.778-2.778a.704.704 0 1 1 .995.995Z" fill="#343333"/><path d="M20.413 6.512v-.019c-.011-.248-.018-.497-.022-.746a2.544 2.544 0 0 0-2.395-2.491c-2.76-.155-4.894-1.054-6.718-2.832l-.015-.015a1.536 1.536 0 0 0-2.088 0L9.16.424C7.336 2.202 5.2 3.1 2.442 3.256A2.544 2.544 0 0 0 .047 5.748c-.004.248-.01.497-.022.745l-.001.044c-.054 2.813-.12 6.315 1.051 9.494.644 1.748 1.62 3.267 2.9 4.516 1.457 1.422 3.366 2.552 5.674 3.356a1.748 1.748 0 0 0 .908.064c.079-.016.157-.038.233-.064 2.305-.806 4.212-1.936 5.668-3.358 1.28-1.25 2.255-2.77 2.9-4.518 1.175-3.188 1.109-6.696 1.055-9.515ZM10.22 17.982A5.988 5.988 0 0 1 4.237 12a5.988 5.988 0 0 1 5.982-5.98 5.988 5.988 0 0 1 5.98 5.98 5.988 5.988 0 0 1-5.98 5.982Z" fill="#343333"/></svg><svg fill="none" viewBox="0 0 24 22" id="time" xmlns="http://www.w3.org/2000/svg"><g fill="#343333"><path d="M17.25.563H13.5a.562.562 0 0 0-.563.562V2.25c0 .31.252.563.563.563h3.75c.31 0 .563-.252.563-.563V1.125a.562.562 0 0 0-.563-.563ZM6.375 8.813h-3.75a.563.563 0 1 0 0 1.124h3.75a.563.563 0 1 0 0-1.124Zm-.188 5.062a.562.562 0 0 0-.562-.563h-3.75a.563.563 0 0 0 0 1.126h3.75a.563.563 0 0 0 .563-.563ZM6 15.563H3.375a.563.563 0 0 0 0 1.124H6a.563.563 0 0 0 0-1.125Zm.188-3.938a.562.562 0 0 0-.563-.563H.75a.563.563 0 0 0 0 1.126h4.875a.563.563 0 0 0 .563-.563Zm9.187 1.125V6.375A6.382 6.382 0 0 0 9 12.75a6.382 6.382 0 0 0 6.375 6.375 6.382 6.382 0 0 0 6.375-6.375h-6.375Z"/><path d="m21.545 7 .603-.602a.56.56 0 0 0-.397-.964.563.563 0 0 0-.399.168l-.628.628A8.402 8.402 0 0 0 16.5 4.387V3.376h-2.25v1.013a8.402 8.402 0 0 0-4.225 1.842l-.627-.628a.563.563 0 1 0-.796.795l.603.604a8.406 8.406 0 0 0-2.268 5.749c0 4.652 3.786 8.438 8.438 8.438 4.652 0 8.438-3.786 8.438-8.438A8.406 8.406 0 0 0 21.544 7Zm-6.17 12.688a6.938 6.938 0 1 1 0-13.876 6.938 6.938 0 0 1 0 13.875Z"/></g></svg></svg>