<svg width="20" height="22" viewBox="0 0 20 22" fill="none" xmlns="http://www.w3.org/2000/svg">
<path d="M7.41933 14.3725H3.1124C2.89433 14.3725 2.71593 14.1943 2.71593 13.9761C2.71593 13.758 2.89433 13.5796 3.1124 13.5796H7.68195C7.93461 12.9354 8.27161 12.3901 8.68802 11.845H3.1124C2.89433 11.845 2.71593 11.6667 2.71593 11.4485C2.71593 11.2304 2.89433 11.052 3.1124 11.052H9.44139C10.6308 10.0112 12.2068 9.34721 13.9266 9.34721C14.0901 9.34721 14.224 9.36199 14.4222 9.37694V5.30295H11.4485C10.2987 5.30295 9.36702 4.36133 9.36702 3.21643V0H1.76438C0.78302 0 0 0.802828 0 1.78909V16.9151C0 17.9013 0.78302 18.6844 1.76443 18.6844H7.73639C7.39449 17.8915 7.20616 16.9993 7.20616 16.0676C7.20113 15.4828 7.2805 14.9177 7.41933 14.3725ZM3.1124 8.57399H8.133C8.35106 8.57399 8.52947 8.75239 8.52947 8.97059C8.52947 9.18865 8.35106 9.36706 8.133 9.36706H3.1124C2.89433 9.36706 2.71593 9.18865 2.71593 8.97063C2.71593 8.75239 2.89433 8.57403 3.1124 8.57403V8.57399Z" fill="#343333" fill-opacity="0.5"/>
<path d="M13.9215 10.1551C10.6555 10.1551 7.99902 12.8114 7.99902 16.0775C7.99902 19.3435 10.6555 22 13.9215 22C17.1876 22 19.8441 19.3435 19.8441 16.0775C19.8441 12.8114 17.1876 10.1551 13.9215 10.1551ZM15.9387 16.5037H14.323V18.1194C14.323 18.3374 14.1447 18.5159 13.9265 18.5159C13.7085 18.5159 13.5301 18.3374 13.5301 18.1194V16.5037H11.8897C11.6715 16.5037 11.4931 16.3253 11.4931 16.1072C11.4931 15.8892 11.6715 15.7108 11.8897 15.7108H13.5301V14.0703C13.5301 13.8522 13.7085 13.6738 13.9265 13.6738C14.1448 13.6738 14.323 13.8522 14.323 14.0703V15.7108H15.9387C16.1569 15.7108 16.3351 15.8892 16.3351 16.1072C16.3351 16.3253 16.1567 16.5037 15.9387 16.5037ZM11.4485 4.51002H13.877L10.1599 0.599731V3.21644C10.1599 3.9253 10.7348 4.51006 11.4484 4.51006L11.4485 4.51002Z" fill="#343333" fill-opacity="0.5"/>
</svg>
