<svg width="24" height="24" viewBox="0 0 24 24" fill="none" xmlns="http://www.w3.org/2000/svg">
<g id="Group">
<path id="Vector" d="M18.8997 1.26688C18.3026 0.704908 17.5385 0.435059 16.7684 0.435059C15.9014 0.435059 15.0259 0.776868 14.3731 1.4305L14.093 1.71063L13.8129 1.42965C13.1601 0.776868 12.2846 0.435059 11.4176 0.435059C10.6475 0.435059 9.88334 0.704908 9.28625 1.26688C7.97298 2.50305 7.94985 4.57104 9.216 5.83719L14.093 10.7142L18.97 5.83719C20.2361 4.57104 20.213 2.50305 18.8997 1.26688ZM23.6868 13.1976C22.9372 12.6896 22.054 12.8336 21.2718 13.285C20.4897 13.7365 15.9991 17.5761 15.9991 17.5761L11.5787 17.5769C11.3731 17.5769 11.1504 17.3456 11.1504 17.1409C11.1504 16.9002 11.3602 16.7125 11.5787 16.7125H14.2832C15.2298 16.7125 16.2895 16.0957 16.2895 14.9992C16.2895 13.8342 15.2298 13.2859 14.2832 13.2859C12.6409 13.2859 12.3214 13.2927 12.3214 13.2927C11.6635 13.2927 10.9962 13.2533 10.4822 12.9783C9.79682 12.6271 9.00697 12.4284 8.16402 12.4284C6.74881 12.4284 5.4818 12.9929 4.61314 13.883L0 18.425L5.13999 23.565L6.85332 21.8517H15.5288C16.3921 21.8517 17.2254 21.535 17.8709 20.9616L23.745 14.3721C24.104 14.0535 24.0834 13.4675 23.6868 13.1976Z" fill="#343333"/>
</g>
</svg>
