<svg width="22" height="22" viewBox="0 0 22 22" fill="none" xmlns="http://www.w3.org/2000/svg">
<path d="M21.7482 20.5327L15.5413 14.3257C18.3693 10.885 18.1769 5.77737 14.9634 2.56391C11.5448 -0.854637 5.98246 -0.854637 2.56391 2.56391C-0.854637 5.98246 -0.854637 11.5448 2.56391 14.9634C5.77651 18.176 10.8835 18.3705 14.3257 15.5413L20.5327 21.7482C20.8683 22.0839 21.4125 22.0839 21.7482 21.7482C22.0839 21.4125 22.0839 20.8683 21.7482 20.5327ZM13.7478 13.7478C10.9995 16.496 6.52778 16.496 3.7795 13.7478C1.03122 10.9995 1.03122 6.52773 3.7795 3.77945C6.52769 1.0313 10.9994 1.03109 13.7478 3.77945C16.4961 6.52773 16.4961 10.9995 13.7478 13.7478Z" fill="#343333"/>
<path d="M12.9724 7.90427H9.62342V4.55529C9.62342 4.08057 9.2386 3.69574 8.76388 3.69574C8.28916 3.69574 7.90433 4.08057 7.90433 4.55529V7.90427H4.55535C4.08063 7.90427 3.6958 8.2891 3.6958 8.76382C3.6958 9.23853 4.08063 9.62336 4.55535 9.62336H7.90433V12.9723C7.90433 13.4471 8.28916 13.8319 8.76388 13.8319C9.2386 13.8319 9.62342 13.4471 9.62342 12.9723V9.62336H12.9724C13.4471 9.62336 13.832 9.23853 13.832 8.76382C13.832 8.2891 13.4471 7.90427 12.9724 7.90427Z" fill="#343333"/>
</svg>
