<svg width="21" height="24" viewBox="0 0 21 24" fill="none" xmlns="http://www.w3.org/2000/svg">
<path d="M10.2186 7.42773C7.6971 7.42773 5.64575 9.47908 5.64575 12.0004C5.64575 14.522 7.6971 16.5733 10.2186 16.5733C12.74 16.5733 14.7913 14.522 14.7913 12.0004C14.7913 9.47903 12.74 7.42773 10.2186 7.42773ZM12.9335 11.1393L9.6576 14.4152C9.59226 14.4807 9.51463 14.5327 9.42916 14.5681C9.34369 14.6035 9.25207 14.6217 9.15955 14.6216C9.06706 14.6217 8.97546 14.6035 8.89003 14.5681C8.80459 14.5327 8.727 14.4807 8.66174 14.4152L7.4098 13.1633C7.13478 12.8885 7.13478 12.4426 7.4098 12.1676C7.68463 11.8926 8.1305 11.8926 8.40552 12.1676L9.15955 12.9216L11.9378 10.1436C12.2127 9.86852 12.6585 9.86852 12.9335 10.1436C13.2086 10.4184 13.2086 10.8643 12.9335 11.1393Z" fill="#343333"/>
<path d="M20.4135 6.5118L20.4127 6.49315C20.4018 6.24468 20.3946 5.99605 20.3911 5.74737C20.3715 4.42404 19.3196 3.32942 17.9961 3.2555C15.2367 3.10147 13.1021 2.2017 11.2782 0.423925L11.2626 0.409112C10.6677 -0.136371 9.77032 -0.136371 9.17519 0.409112L9.15963 0.423925C7.33573 2.2017 5.20109 3.10147 2.4417 3.25564C1.11843 3.32942 0.0662717 4.42409 0.046678 5.74751C0.0432389 5.99615 0.0360506 6.24472 0.0251155 6.49315L0.0239905 6.53651C-0.0296813 9.35031 -0.0963374 12.8522 1.07516 16.0307C1.71936 17.7787 2.69492 19.298 3.97465 20.547C5.43218 21.9694 7.34121 23.0986 9.64872 23.9031C9.72468 23.9296 9.80236 23.9507 9.88122 23.9665C9.9933 23.9888 10.1061 24 10.2189 24C10.3317 24 10.4447 23.9888 10.5565 23.9665C10.6357 23.9506 10.7137 23.9293 10.79 23.9027C13.0947 23.0967 15.0018 21.967 16.458 20.5448C17.7372 19.2955 18.7128 17.7757 19.3575 16.0274C20.5334 12.8394 20.4669 9.33086 20.4135 6.5118ZM10.2185 17.9815C6.92041 17.9815 4.23739 15.2985 4.23739 12.0004C4.23739 8.70227 6.92046 6.01924 10.2185 6.01924C13.5165 6.01924 16.1997 8.70227 16.1997 12.0004C16.1997 15.2985 13.5165 17.9815 10.2185 17.9815Z" fill="#343333"/>
</svg>
