<svg width="31" height="23" viewBox="0 0 31 23" fill="none" xmlns="http://www.w3.org/2000/svg">
<path d="M23.3334 23C19.0747 23 16 19.484 16 14.2773C16.0267 6.71334 21.7134 1.36533 29.9174 0.338667C30.6774 0.242668 30.9707 1.29867 30.2707 1.60933C27.124 3.00933 25.5334 4.78533 25.328 6.54267C25.1747 7.856 25.888 9.00667 26.7854 9.22267C29.1094 9.78133 30.6667 12.676 30.6667 15.6667C30.6667 17.6116 29.8941 19.4768 28.5188 20.8521C27.1436 22.2274 25.2783 23 23.3334 23ZM7.33338 23C3.07471 23 4.76837e-05 19.484 4.76837e-05 14.2773C0.0267143 6.71334 5.71338 1.36533 13.9174 0.338667C14.6774 0.242668 14.9707 1.29867 14.2707 1.60933C11.124 3.00933 9.53338 4.78533 9.32805 6.54267C9.17472 7.856 9.88805 9.00667 10.7854 9.22267C13.1094 9.78133 14.6667 12.676 14.6667 15.6667C14.6667 17.6116 13.8941 19.4768 12.5188 20.8521C11.1436 22.2274 9.2783 23 7.33338 23Z" fill="#343333"/>
</svg>
