<svg width="22" height="22" viewBox="0 0 22 22" fill="none" xmlns="http://www.w3.org/2000/svg">
<g id="Group">
<path id="Vector" d="M21.3553 20.711H20.6678V7.99231C20.6678 7.63635 20.3793 7.34778 20.0233 7.34778H17.4452C17.0893 7.34778 16.8007 7.63635 16.8007 7.99231V20.711H15.5116V12.2892C15.5116 11.9332 15.223 11.6446 14.8671 11.6446H12.289C11.933 11.6446 11.6445 11.9332 11.6445 12.2892V20.711H10.3554V14.6524C10.3554 14.2965 10.0668 14.0079 9.71088 14.0079H7.13277C6.77682 14.0079 6.48824 14.2965 6.48824 14.6524V20.711H5.19919V16.1993C5.19919 15.8433 4.91061 15.5548 4.55466 15.5548H1.97655C1.6206 15.5548 1.33202 15.8433 1.33202 16.1993V20.711H0.644527C0.288576 20.711 0 20.9996 0 21.3555C0 21.7115 0.288576 22 0.644527 22H21.3553C21.7113 22 21.9999 21.7115 21.9999 21.3555C21.9999 20.9996 21.7113 20.711 21.3553 20.711Z" fill="#343333"/>
<path id="Vector_2" d="M0.644527 13.849C4.66715 13.849 9.0294 12.4044 12.9278 9.78109C15.9809 7.72656 18.5259 5.10191 20.1068 2.41436L20.7328 4.75043C20.81 5.0384 21.1826 5.28719 21.5222 5.20615C21.8684 5.12357 22.07 4.76061 21.9779 4.41678L20.9225 0.477857C20.8303 0.134066 20.4771 -0.0700339 20.1331 0.0221335L16.1942 1.07757C15.8503 1.16969 15.6463 1.52311 15.7385 1.86694C15.8306 2.21078 16.1839 2.41488 16.5278 2.32267L19.0653 1.64273C17.5904 4.20563 15.1529 6.72994 12.2081 8.71161C8.52018 11.1933 4.41351 12.56 0.644527 12.56C0.288576 12.56 0 12.8486 0 13.2045C0 13.5605 0.288576 13.849 0.644527 13.849Z" fill="#343333"/>
</g>
</svg>
